<svg id="svg" version="1.1" width="400" height="383.67346938775506" xmlns="http://www.w3.org/2000/svg" xmlns:xlink="http://www.w3.org/1999/xlink" style="display: block;"><g id="svgg"><path id="path0" d="" stroke="none" fill="#000000" fill-rule="evenodd"></path><path id="path1" d="M240.313 244.790 C 240.324 245.378,241.032 246.236,241.292 245.976 C 241.434 245.834,241.270 245.438,240.929 245.096 C 240.587 244.755,240.310 244.617,240.313 244.790 " stroke="none" fill="#990000" fill-rule="evenodd"></path><path id="path2" d="M233.260 221.113 C 233.501 221.430,233.783 222.035,233.887 222.457 C 234.067 223.186,234.078 223.184,234.121 222.408 C 234.145 221.959,233.863 221.354,233.493 221.064 C 232.909 220.606,232.879 220.612,233.260 221.113 M66.455 222.530 C 66.431 222.993,66.238 223.478,66.027 223.608 C 65.816 223.739,65.643 224.047,65.643 224.292 C 65.643 224.538,65.914 224.352,66.246 223.879 C 66.577 223.405,66.770 222.719,66.674 222.354 C 66.542 221.849,66.489 221.892,66.455 222.530 M209.998 228.075 C 209.988 228.420,210.233 229.284,210.542 229.994 C 211.267 231.664,211.284 230.972,210.568 228.983 C 210.263 228.138,210.007 227.730,209.998 228.075 M159.002 250.749 C 158.749 251.002,158.565 251.650,158.594 252.188 L 158.646 253.167 158.822 252.207 C 158.919 251.679,159.176 251.032,159.393 250.768 C 159.896 250.156,159.609 250.141,159.002 250.749 M46.878 279.674 C 46.853 280.107,46.661 280.669,46.451 280.923 C 46.240 281.177,46.343 281.145,46.679 280.853 C 47.016 280.560,47.208 279.998,47.106 279.604 C 46.940 278.957,46.918 278.964,46.878 279.674 M365.097 315.812 C 365.081 316.275,365.240 316.760,365.451 316.891 C 365.662 317.021,365.849 317.506,365.865 317.969 C 365.883 318.453,365.983 318.590,366.102 318.292 C 366.215 318.008,366.128 317.403,365.908 316.949 C 365.687 316.494,365.422 315.864,365.317 315.547 C 365.198 315.183,365.117 315.281,365.097 315.812 M33.493 318.899 C 32.810 320.356,32.902 320.953,33.602 319.609 C 33.923 318.993,34.138 318.351,34.080 318.182 C 34.021 318.014,33.757 318.336,33.493 318.899 M278.714 368.522 C 278.710 368.628,278.955 369.405,279.260 370.250 C 279.564 371.094,279.814 371.440,279.816 371.017 C 279.819 370.379,278.738 367.932,278.714 368.522 " stroke="none" fill="#b11414" fill-rule="evenodd"></path><path id="path3" d="M140.883 1.128 C 140.883 1.749,140.710 2.365,140.499 2.495 C 140.288 2.626,140.115 3.230,140.115 3.839 C 140.115 4.447,139.942 5.052,139.731 5.182 C 139.520 5.313,139.347 5.757,139.347 6.170 C 139.347 6.583,139.190 7.220,138.998 7.587 C 138.358 8.809,137.044 12.379,137.044 12.898 C 137.044 13.373,136.250 15.423,135.462 16.981 C 135.276 17.348,135.125 17.986,135.125 18.398 C 135.125 18.811,134.952 19.255,134.741 19.386 C 134.530 19.516,134.357 20.097,134.357 20.675 C 134.357 21.254,134.220 21.892,134.051 22.092 C 133.883 22.293,133.527 23.148,133.258 23.992 C 132.990 24.837,132.635 25.873,132.469 26.296 C 132.303 26.718,131.862 27.927,131.490 28.983 C 130.392 32.098,129.324 35.083,129.086 35.701 C 128.964 36.017,128.794 36.708,128.708 37.236 C 128.622 37.764,128.389 38.360,128.191 38.560 C 127.993 38.761,127.831 39.322,127.831 39.808 C 127.831 40.294,127.658 40.691,127.447 40.691 C 127.236 40.691,127.063 41.199,127.063 41.820 C 127.063 42.441,126.891 43.056,126.679 43.186 C 126.468 43.317,126.296 43.811,126.296 44.284 C 126.296 44.757,126.153 45.308,125.978 45.509 C 125.804 45.709,125.441 46.651,125.171 47.601 C 124.902 48.551,124.440 49.787,124.145 50.347 C 123.850 50.908,123.608 51.718,123.608 52.148 C 123.608 52.578,123.436 53.036,123.225 53.167 C 123.013 53.297,122.841 53.826,122.841 54.341 C 122.841 54.857,122.706 55.278,122.541 55.278 C 122.375 55.278,122.202 55.746,122.154 56.317 C 122.107 56.888,121.897 57.527,121.687 57.737 C 121.477 57.947,121.305 58.432,121.305 58.815 C 121.305 59.198,121.152 59.811,120.966 60.178 C 120.779 60.545,120.252 62.054,119.794 63.532 C 118.927 66.333,118.759 66.791,117.695 69.241 C 117.340 70.059,117.137 70.816,117.244 70.923 C 117.352 71.030,117.186 71.479,116.877 71.921 C 116.568 72.362,116.315 73.107,116.315 73.575 C 116.315 74.044,116.142 74.534,115.931 74.664 C 115.720 74.795,115.547 75.239,115.547 75.652 C 115.547 76.064,115.391 76.702,115.201 77.069 C 115.010 77.435,114.648 78.512,114.395 79.463 C 114.143 80.413,113.781 81.490,113.590 81.857 C 113.400 82.223,113.244 82.871,113.244 83.296 C 113.244 83.721,113.071 84.069,112.860 84.069 C 112.649 84.069,112.476 84.469,112.476 84.957 C 112.476 85.445,112.151 86.525,111.753 87.356 C 111.356 88.187,110.911 89.427,110.764 90.111 C 110.617 90.795,110.338 91.453,110.143 91.573 C 109.948 91.693,109.789 92.290,109.789 92.898 C 109.789 93.507,109.616 94.111,109.405 94.242 C 109.194 94.372,109.021 94.891,109.021 95.393 C 109.021 95.896,108.848 96.415,108.637 96.545 C 108.426 96.676,108.253 97.194,108.253 97.697 C 108.253 98.200,108.081 98.718,107.869 98.848 C 107.658 98.979,107.486 99.507,107.486 100.023 C 107.486 100.538,107.313 100.960,107.102 100.960 C 106.891 100.960,106.718 101.394,106.718 101.925 C 106.718 102.854,106.597 103.203,105.626 105.081 C 105.382 105.553,105.182 106.386,105.182 106.932 C 105.182 107.478,104.915 108.192,104.587 108.519 C 102.659 110.448,100.451 110.357,151.791 110.462 C 203.027 110.567,200.384 110.446,200.384 112.692 C 200.384 113.393,200.557 114.073,200.768 114.203 C 200.979 114.334,201.152 114.852,201.152 115.355 C 201.152 115.858,201.324 116.376,201.536 116.507 C 201.747 116.637,201.920 117.036,201.922 117.393 C 201.923 117.750,202.182 118.537,202.498 119.142 C 202.813 119.747,203.071 120.643,203.071 121.134 C 203.071 121.626,203.244 122.134,203.455 122.265 C 203.666 122.395,203.839 123.000,203.839 123.608 C 203.839 124.217,204.012 124.822,204.223 124.952 C 204.434 125.083,204.607 125.784,204.607 126.510 C 204.607 127.237,204.779 127.831,204.990 127.831 C 205.202 127.831,205.374 128.349,205.374 128.983 C 205.374 129.616,205.528 130.134,205.716 130.134 C 205.904 130.134,206.151 130.696,206.265 131.382 C 206.593 133.366,206.944 134.872,207.270 135.701 C 207.437 136.123,207.879 137.418,208.255 138.580 C 208.630 139.741,209.085 140.855,209.267 141.056 C 209.448 141.256,209.597 141.820,209.597 142.308 C 209.597 142.797,209.748 143.497,209.934 143.863 C 210.500 144.983,211.132 147.224,211.132 148.108 C 211.132 148.568,211.305 148.944,211.516 148.944 C 211.727 148.944,211.900 149.539,211.900 150.265 C 211.900 150.992,212.073 151.693,212.284 151.823 C 212.495 151.954,212.668 152.472,212.668 152.975 C 212.668 153.478,212.841 153.996,213.052 154.127 C 213.263 154.257,213.436 154.958,213.436 155.685 C 213.436 156.411,213.608 157.006,213.820 157.006 C 214.031 157.006,214.203 157.489,214.203 158.081 C 214.203 158.672,214.383 159.335,214.601 159.553 C 214.820 159.772,215.090 160.455,215.200 161.070 C 215.311 161.685,215.563 162.352,215.762 162.553 C 215.960 162.753,216.123 163.477,216.123 164.162 C 216.123 164.846,216.296 165.513,216.507 165.643 C 216.718 165.773,216.891 166.302,216.891 166.817 C 216.891 167.333,217.044 167.754,217.232 167.754 C 217.555 167.754,217.669 168.187,218.265 171.693 C 218.400 172.486,218.665 173.231,218.852 173.347 C 219.040 173.463,219.194 173.969,219.194 174.472 C 219.194 174.975,219.367 175.493,219.578 175.624 C 219.789 175.754,219.962 176.359,219.962 176.967 C 219.962 177.576,220.113 178.167,220.298 178.282 C 220.628 178.486,221.464 181.215,221.774 183.102 C 221.860 183.626,222.067 184.144,222.233 184.254 C 222.399 184.363,222.634 184.885,222.757 185.413 C 222.879 185.940,223.180 187.063,223.426 187.908 C 223.671 188.752,223.961 190.006,224.070 190.695 C 224.180 191.383,224.423 192.041,224.611 192.157 C 224.798 192.273,224.952 192.876,224.952 193.497 C 224.952 194.118,225.092 194.626,225.263 194.626 C 225.435 194.626,225.800 195.533,226.076 196.641 C 226.352 197.750,226.796 199.175,227.062 199.808 C 227.329 200.441,227.768 201.953,228.038 203.167 C 228.308 204.381,228.675 205.374,228.852 205.374 C 229.030 205.374,229.175 205.979,229.175 206.718 C 229.175 207.457,229.347 208.061,229.559 208.061 C 229.770 208.061,229.942 208.666,229.942 209.405 C 229.942 210.144,230.115 210.749,230.326 210.749 C 230.537 210.749,230.710 211.183,230.710 211.713 C 230.710 212.244,230.866 212.978,231.057 213.345 C 231.247 213.712,231.613 214.789,231.869 215.739 C 232.125 216.689,232.528 217.985,232.764 218.618 C 233.000 219.251,233.151 219.963,233.098 220.198 C 233.046 220.434,233.265 220.844,233.584 221.109 C 233.904 221.374,234.165 222.078,234.165 222.673 C 234.165 223.268,234.338 223.862,234.549 223.992 C 234.760 224.123,234.933 224.641,234.933 225.144 C 234.933 225.647,235.106 226.165,235.317 226.296 C 235.528 226.426,235.701 227.031,235.701 227.639 C 235.701 228.248,235.873 228.852,236.084 228.983 C 236.296 229.113,236.468 229.814,236.468 230.541 C 236.468 231.267,236.641 231.862,236.852 231.862 C 237.063 231.862,237.236 232.370,237.236 232.991 C 237.236 233.612,237.409 234.227,237.620 234.357 C 237.831 234.487,238.004 234.932,238.004 235.345 C 238.004 235.757,238.155 236.395,238.341 236.761 C 238.788 237.646,239.546 240.061,239.777 241.339 C 239.880 241.903,240.079 242.549,240.221 242.775 C 240.363 243.001,240.538 243.618,240.609 244.146 C 240.680 244.674,240.900 245.163,241.098 245.234 C 241.297 245.304,241.459 245.724,241.459 246.166 C 241.459 247.022,242.099 249.274,242.657 250.379 C 242.843 250.745,242.994 251.469,242.994 251.987 C 242.994 252.506,243.147 253.024,243.334 253.140 C 243.521 253.255,243.762 253.827,243.869 254.410 C 244.321 256.858,245.380 260.534,245.917 261.517 C 246.234 262.098,246.403 262.720,246.292 262.900 C 246.181 263.080,246.338 263.554,246.641 263.955 C 246.944 264.356,247.198 265.062,247.205 265.524 C 247.211 265.987,247.371 266.460,247.558 266.576 C 247.746 266.693,248.005 267.394,248.134 268.135 C 248.263 268.876,248.474 270.086,248.602 270.825 C 248.731 271.564,248.990 272.169,249.178 272.169 C 249.366 272.169,249.520 272.603,249.520 273.134 C 249.520 273.665,249.676 274.399,249.867 274.765 C 250.057 275.132,250.419 276.209,250.672 277.159 C 250.924 278.109,251.260 279.146,251.418 279.463 C 251.576 279.779,251.924 280.988,252.191 282.150 C 252.459 283.311,252.917 284.644,253.210 285.111 C 253.503 285.579,253.743 286.389,253.743 286.912 C 253.743 287.435,253.916 287.969,254.127 288.100 C 254.338 288.230,254.511 288.845,254.511 289.466 C 254.511 290.087,254.683 290.595,254.894 290.595 C 255.106 290.595,255.278 291.103,255.278 291.724 C 255.278 292.345,255.451 292.960,255.662 293.090 C 255.873 293.221,256.046 293.825,256.046 294.434 C 256.046 295.042,256.219 295.647,256.430 295.777 C 256.641 295.908,256.814 296.488,256.814 297.067 C 256.814 297.646,256.986 298.291,257.195 298.501 C 257.405 298.711,257.616 299.350,257.663 299.921 C 257.710 300.492,257.884 300.960,258.049 300.960 C 258.214 300.960,258.349 301.297,258.349 301.709 C 258.349 302.122,258.514 302.856,258.715 303.341 C 258.916 303.826,259.386 305.302,259.759 306.622 C 260.133 307.941,260.573 309.021,260.738 309.021 C 260.902 309.021,261.036 309.529,261.036 310.150 C 261.036 310.771,261.209 311.386,261.420 311.516 C 261.631 311.647,261.804 312.348,261.804 313.074 C 261.804 313.801,261.977 314.395,262.188 314.395 C 262.399 314.395,262.572 314.830,262.572 315.360 C 262.572 315.891,262.728 316.625,262.918 316.992 C 263.109 317.358,263.478 318.436,263.738 319.386 C 264.762 323.122,264.987 323.846,265.514 325.096 C 265.814 325.808,265.972 326.478,265.865 326.585 C 265.758 326.693,265.923 327.142,266.232 327.583 C 266.542 328.025,266.795 328.769,266.795 329.237 C 266.795 329.706,266.967 330.196,267.179 330.326 C 267.390 330.457,267.562 331.072,267.562 331.693 C 267.562 332.313,267.735 332.821,267.946 332.821 C 268.157 332.821,268.330 333.416,268.330 334.142 C 268.330 334.869,268.503 335.570,268.714 335.701 C 268.925 335.831,269.098 336.362,269.098 336.880 C 269.098 337.398,269.254 338.122,269.444 338.489 C 269.635 338.856,270.001 339.933,270.258 340.883 C 270.515 341.833,270.962 343.258,271.252 344.050 C 271.542 344.842,271.688 345.489,271.576 345.489 C 271.465 345.489,271.588 345.878,271.849 346.353 C 272.110 346.828,272.362 347.446,272.409 347.727 C 272.455 348.007,272.619 348.525,272.773 348.878 C 272.926 349.231,273.117 349.862,273.197 350.280 C 273.277 350.697,273.510 351.207,273.715 351.412 C 273.920 351.617,274.088 352.321,274.088 352.975 C 274.088 353.630,274.231 354.329,274.405 354.530 C 274.580 354.730,274.945 355.672,275.218 356.622 C 275.490 357.572,275.874 358.794,276.071 359.338 C 276.268 359.882,276.457 360.702,276.492 361.161 C 276.527 361.621,276.691 361.996,276.857 361.996 C 277.023 361.996,277.159 362.418,277.159 362.933 C 277.159 363.449,277.332 363.977,277.543 364.107 C 277.754 364.238,277.927 364.755,277.927 365.256 C 277.927 365.758,278.339 367.173,278.843 368.401 C 279.346 369.629,279.968 371.411,280.224 372.361 C 280.480 373.311,280.845 374.388,281.035 374.755 C 281.226 375.121,281.382 375.856,281.382 376.386 C 281.382 376.917,281.555 377.351,281.766 377.351 C 281.977 377.351,282.145 377.567,282.139 377.831 C 282.134 378.095,282.522 379.562,283.003 381.092 L 283.877 383.873 341.956 383.875 L 400.035 383.877 399.775 382.438 C 399.633 381.646,399.388 380.825,399.232 380.614 C 399.077 380.403,398.734 379.280,398.472 378.119 C 398.209 376.958,397.755 375.625,397.462 375.157 C 397.169 374.690,396.929 373.869,396.929 373.334 C 396.929 372.799,396.756 372.361,396.545 372.361 C 396.334 372.361,396.161 371.756,396.161 371.017 C 396.161 370.278,395.988 369.674,395.777 369.674 C 395.566 369.674,395.393 369.155,395.393 368.522 C 395.393 367.889,395.221 367.370,395.010 367.370 C 394.798 367.370,394.626 366.766,394.626 366.027 C 394.626 365.288,394.453 364.683,394.242 364.683 C 394.031 364.683,393.858 364.165,393.858 363.532 C 393.858 362.898,393.685 362.380,393.474 362.380 C 393.263 362.380,393.090 361.810,393.090 361.113 C 393.090 360.417,392.922 359.679,392.717 359.474 C 392.512 359.268,392.288 358.759,392.219 358.341 C 392.150 357.923,391.892 357.216,391.645 356.768 C 391.399 356.321,391.302 355.851,391.428 355.725 C 391.555 355.598,391.376 355.063,391.031 354.536 C 390.686 354.009,390.403 353.140,390.403 352.605 C 390.403 352.069,390.230 351.631,390.019 351.631 C 389.808 351.631,389.635 351.113,389.635 350.480 C 389.635 349.846,389.463 349.328,389.251 349.328 C 389.040 349.328,388.868 348.820,388.868 348.199 C 388.868 347.578,388.695 346.964,388.484 346.833 C 388.273 346.703,388.100 346.036,388.100 345.352 C 388.100 344.667,387.957 343.943,387.783 343.743 C 387.608 343.542,387.242 342.601,386.969 341.651 C 386.696 340.701,386.235 339.275,385.946 338.484 C 385.656 337.692,385.508 337.044,385.617 337.044 C 385.725 337.044,385.536 336.620,385.196 336.101 C 384.857 335.583,384.676 335.000,384.796 334.807 C 385.703 333.340,383.722 332.821,377.210 332.821 C 371.081 332.821,370.825 332.791,370.825 332.054 C 370.825 331.631,370.653 331.286,370.441 331.286 C 370.230 331.286,370.058 330.768,370.058 330.134 C 370.058 329.501,369.885 328.983,369.674 328.983 C 369.463 328.983,369.290 328.561,369.290 328.046 C 369.290 327.530,369.117 327.002,368.906 326.871 C 368.695 326.741,368.522 326.136,368.522 325.528 C 368.522 324.919,368.349 324.315,368.138 324.184 C 367.927 324.054,367.754 323.560,367.754 323.087 C 367.754 322.614,367.606 322.062,367.424 321.862 C 367.242 321.661,366.776 320.547,366.387 319.386 C 365.998 318.225,365.542 317.110,365.374 316.910 C 365.205 316.709,365.067 316.061,365.067 315.470 C 365.067 314.879,364.894 314.395,364.683 314.395 C 364.472 314.395,364.299 313.887,364.299 313.266 C 364.299 312.645,364.127 312.031,363.916 311.900 C 363.704 311.770,363.532 311.251,363.532 310.749 C 363.532 310.246,363.359 309.727,363.148 309.597 C 362.937 309.466,362.764 308.938,362.764 308.423 C 362.764 307.907,362.591 307.486,362.380 307.486 C 362.169 307.486,361.996 306.967,361.996 306.334 C 361.996 305.701,361.823 305.182,361.612 305.182 C 361.401 305.182,361.228 304.674,361.228 304.053 C 361.228 303.432,361.077 302.831,360.892 302.716 C 360.553 302.507,359.663 299.446,359.808 298.985 C 359.850 298.848,359.595 298.417,359.240 298.025 C 358.886 297.633,358.597 297.140,358.598 296.929 C 358.602 296.376,357.760 293.592,357.352 292.808 C 357.162 292.441,357.006 291.793,357.006 291.368 C 357.006 290.943,356.833 290.595,356.622 290.595 C 356.411 290.595,356.238 290.077,356.238 289.443 C 356.238 288.810,356.065 288.292,355.854 288.292 C 355.643 288.292,355.470 287.702,355.470 286.980 C 355.470 286.259,355.314 285.611,355.123 285.541 C 354.932 285.470,354.716 284.981,354.643 284.453 C 354.570 283.925,354.416 283.407,354.300 283.301 C 354.184 283.196,353.806 282.246,353.460 281.190 C 352.367 277.852,351.922 276.603,351.580 275.917 C 351.397 275.550,351.248 274.816,351.248 274.285 C 351.248 273.755,351.075 273.321,350.864 273.321 C 350.653 273.321,350.480 272.899,350.480 272.383 C 350.480 271.868,350.307 271.340,350.096 271.209 C 349.885 271.079,349.712 270.634,349.712 270.222 C 349.712 269.809,349.557 269.171,349.368 268.805 C 349.178 268.438,348.639 266.843,348.170 265.259 C 347.701 263.676,347.173 262.035,346.996 261.612 C 345.878 258.937,345.489 257.787,345.489 257.151 C 345.489 256.754,345.317 256.430,345.106 256.430 C 344.894 256.430,344.722 255.912,344.722 255.278 C 344.722 254.645,344.549 254.127,344.338 254.127 C 344.127 254.127,343.954 253.619,343.954 252.998 C 343.954 252.377,343.781 251.762,343.570 251.631 C 343.359 251.501,343.186 251.007,343.186 250.534 C 343.186 250.061,343.043 249.510,342.869 249.309 C 342.695 249.108,342.329 248.167,342.058 247.217 C 341.786 246.267,341.427 245.144,341.261 244.722 C 341.095 244.299,340.667 242.961,340.310 241.747 C 339.953 240.534,339.504 239.444,339.312 239.325 C 339.120 239.207,338.964 238.699,338.964 238.196 C 338.964 237.693,338.791 237.175,338.580 237.044 C 338.369 236.914,338.196 236.395,338.196 235.893 C 338.196 235.390,338.023 234.871,337.812 234.741 C 337.601 234.610,337.428 233.996,337.428 233.375 C 337.428 232.754,337.255 232.246,337.044 232.246 C 336.833 232.246,336.660 231.824,336.660 231.309 C 336.660 230.793,336.488 230.265,336.276 230.134 C 336.065 230.004,335.893 229.389,335.893 228.768 C 335.893 228.147,335.720 227.639,335.509 227.639 C 335.298 227.639,335.125 227.121,335.125 226.488 C 335.125 225.854,334.952 225.336,334.741 225.336 C 334.530 225.336,334.357 225.002,334.357 224.593 C 334.357 224.185,334.157 223.364,333.913 222.770 C 333.669 222.175,333.444 221.516,333.412 221.305 C 333.333 220.772,332.516 218.754,332.054 217.951 C 331.843 217.585,331.670 216.851,331.670 216.320 C 331.670 215.789,331.497 215.355,331.286 215.355 C 331.075 215.355,330.902 214.847,330.902 214.226 C 330.902 213.605,330.729 212.990,330.518 212.860 C 330.307 212.729,330.134 212.115,330.134 211.494 C 330.134 210.873,329.962 210.365,329.750 210.365 C 329.539 210.365,329.364 210.062,329.361 209.693 C 329.354 208.908,328.477 206.276,328.094 205.893 C 327.949 205.749,327.831 205.141,327.831 204.543 C 327.831 203.944,327.694 203.455,327.527 203.455 C 327.360 203.455,326.892 202.246,326.488 200.768 C 326.083 199.290,325.615 198.081,325.448 198.081 C 325.281 198.081,325.144 197.659,325.144 197.144 C 325.144 196.628,324.971 196.100,324.760 195.969 C 324.549 195.839,324.376 195.224,324.376 194.603 C 324.376 193.982,324.203 193.474,323.992 193.474 C 323.781 193.474,323.608 193.169,323.608 192.797 C 323.608 192.424,323.263 191.174,322.841 190.019 C 322.418 188.864,322.073 187.562,322.073 187.126 C 322.073 186.691,321.935 186.170,321.767 185.969 C 321.598 185.769,321.142 184.655,320.753 183.493 C 320.364 182.332,319.898 181.218,319.716 181.017 C 319.534 180.817,319.386 180.265,319.386 179.792 C 319.386 179.319,319.213 178.825,319.002 178.695 C 318.791 178.564,318.618 177.950,318.618 177.329 C 318.618 176.708,318.445 176.200,318.234 176.200 C 318.023 176.200,317.850 175.862,317.850 175.450 C 317.850 175.038,317.656 174.217,317.419 173.627 C 316.592 171.571,316.399 171.007,315.937 169.290 C 315.681 168.340,315.316 167.262,315.126 166.896 C 314.935 166.529,314.779 166.065,314.779 165.865 C 314.779 165.665,314.582 165.015,314.341 164.420 C 314.100 163.826,313.852 163.081,313.789 162.764 C 313.535 161.475,312.653 159.309,312.382 159.309 C 312.223 159.309,312.092 158.801,312.092 158.180 C 312.092 157.559,311.919 156.944,311.708 156.814 C 311.497 156.683,311.324 156.189,311.324 155.716 C 311.324 155.243,311.162 154.692,310.964 154.491 C 310.766 154.291,310.538 153.695,310.457 153.167 C 310.377 152.639,310.020 151.538,309.666 150.721 C 309.311 149.903,309.021 149.039,309.021 148.800 C 309.021 148.561,308.571 147.157,308.021 145.680 C 307.470 144.203,307.010 142.778,306.997 142.514 C 306.984 142.250,306.830 142.035,306.654 142.035 C 306.478 142.035,306.334 141.516,306.334 140.883 C 306.334 140.250,306.161 139.731,305.950 139.731 C 305.739 139.731,305.566 139.213,305.566 138.580 C 305.566 137.946,305.393 137.428,305.182 137.428 C 304.971 137.428,304.798 137.091,304.798 136.678 C 304.798 136.266,304.604 135.445,304.367 134.855 C 304.129 134.264,303.800 133.436,303.635 133.013 C 303.290 132.130,301.559 126.583,301.538 126.296 C 301.515 125.984,299.778 121.556,299.394 120.831 C 299.199 120.464,299.040 119.826,299.040 119.414 C 299.040 119.001,298.868 118.557,298.656 118.426 C 298.445 118.296,298.273 117.594,298.273 116.868 C 298.273 116.141,298.100 115.547,297.889 115.547 C 297.678 115.547,297.505 115.150,297.505 114.664 C 297.505 114.179,297.343 113.617,297.145 113.417 C 296.947 113.216,296.714 112.620,296.628 112.092 C 296.476 111.160,296.238 110.418,295.583 108.829 C 295.409 108.407,294.958 107.111,294.581 105.950 C 294.204 104.789,293.757 103.675,293.589 103.474 C 293.420 103.274,293.282 102.722,293.282 102.249 C 293.282 101.776,293.109 101.282,292.898 101.152 C 292.687 101.021,292.514 100.406,292.514 99.785 C 292.514 99.164,292.342 98.656,292.131 98.656 C 291.919 98.656,291.747 98.138,291.747 97.505 C 291.747 96.871,291.574 96.353,291.363 96.353 C 291.152 96.353,290.979 95.845,290.979 95.224 C 290.979 94.603,290.806 93.988,290.595 93.858 C 290.384 93.727,290.211 93.234,290.211 92.760 C 290.211 92.287,290.062 91.736,289.879 91.536 C 289.697 91.335,289.233 90.091,288.847 88.772 C 288.462 87.452,288.044 86.372,287.919 86.372 C 287.794 86.372,287.652 85.897,287.604 85.317 C 287.557 84.736,287.346 84.203,287.137 84.133 C 286.927 84.063,286.756 83.511,286.756 82.908 C 286.756 82.305,286.583 81.704,286.372 81.574 C 286.161 81.443,285.988 80.829,285.988 80.208 C 285.988 79.587,285.816 79.079,285.605 79.079 C 285.393 79.079,285.221 78.657,285.221 78.142 C 285.221 77.626,285.048 77.098,284.837 76.967 C 284.626 76.837,284.453 76.222,284.453 75.601 C 284.453 74.980,284.280 74.472,284.069 74.472 C 283.858 74.472,283.685 73.964,283.685 73.343 C 283.685 72.722,283.512 72.107,283.301 71.977 C 283.090 71.846,282.917 71.318,282.917 70.803 C 282.917 70.287,282.745 69.866,282.534 69.866 C 282.322 69.866,282.150 69.542,282.150 69.146 C 282.150 68.750,281.718 67.449,281.190 66.256 C 280.662 65.062,280.230 63.745,280.230 63.329 C 280.230 62.913,280.058 62.572,279.846 62.572 C 279.635 62.572,279.463 62.064,279.463 61.443 C 279.463 60.822,279.290 60.207,279.079 60.077 C 278.868 59.946,278.695 59.331,278.695 58.711 C 278.695 58.090,278.522 57.582,278.311 57.582 C 278.100 57.582,277.927 57.277,277.927 56.904 C 277.927 56.532,277.582 55.282,277.159 54.127 C 276.737 52.971,276.392 51.721,276.392 51.349 C 276.392 50.977,276.262 50.672,276.104 50.672 C 275.945 50.672,275.477 49.549,275.062 48.177 C 274.648 46.804,274.173 45.681,274.007 45.681 C 273.841 45.681,273.704 45.173,273.704 44.552 C 273.704 43.931,273.532 43.317,273.321 43.186 C 273.109 43.056,272.937 42.537,272.937 42.035 C 272.937 41.532,272.764 41.013,272.553 40.883 C 272.342 40.752,272.169 40.138,272.169 39.517 C 272.169 38.896,271.996 38.388,271.785 38.388 C 271.574 38.388,271.401 38.108,271.401 37.766 C 271.401 37.170,270.109 32.884,269.447 31.286 C 267.989 27.765,267.179 25.477,267.179 24.886 C 267.179 24.500,267.006 24.184,266.795 24.184 C 266.583 24.184,266.411 23.666,266.411 23.033 C 266.411 22.399,266.238 21.881,266.027 21.881 C 265.816 21.881,265.643 21.276,265.643 20.537 C 265.643 19.798,265.470 19.194,265.259 19.194 C 265.048 19.194,264.875 18.676,264.875 18.042 C 264.875 17.409,264.702 16.891,264.491 16.891 C 264.280 16.891,264.107 16.372,264.107 15.739 C 264.107 15.106,263.967 14.587,263.796 14.587 C 263.625 14.587,263.260 13.680,262.986 12.572 C 262.712 11.464,262.247 10.174,261.954 9.706 C 261.660 9.239,261.420 8.505,261.420 8.075 C 261.420 7.645,261.248 7.294,261.036 7.294 C 260.825 7.294,260.653 6.786,260.653 6.165 C 260.653 5.544,260.480 4.929,260.269 4.798 C 260.058 4.668,259.885 4.174,259.885 3.701 C 259.885 3.228,259.727 2.677,259.533 2.476 C 259.340 2.275,259.124 1.679,259.054 1.152 L 258.925 0.192 199.904 0.095 L 140.883 -0.002 140.883 1.128 M75.318 197.005 C 75.064 197.259,74.856 197.854,74.856 198.327 C 74.856 198.800,74.683 199.294,74.472 199.424 C 74.261 199.555,74.088 200.085,74.088 200.604 C 74.088 201.122,73.927 201.846,73.729 202.213 C 73.531 202.579,72.909 204.175,72.346 205.758 C 71.784 207.342,71.168 208.937,70.978 209.304 C 70.789 209.670,70.633 210.318,70.633 210.743 C 70.633 211.168,70.461 211.516,70.250 211.516 C 70.038 211.516,69.866 212.024,69.866 212.645 C 69.866 213.266,69.693 213.881,69.482 214.012 C 69.271 214.142,69.098 214.660,69.098 215.163 C 69.098 215.666,68.925 216.184,68.714 216.315 C 68.503 216.445,68.330 217.060,68.330 217.681 C 68.330 218.302,68.157 218.810,67.946 218.810 C 67.735 218.810,67.562 219.328,67.562 219.962 C 67.562 220.595,67.390 221.113,67.179 221.113 C 66.967 221.113,66.795 221.531,66.795 222.042 C 66.795 222.553,66.551 223.459,66.254 224.057 C 65.498 225.578,65.041 226.790,64.468 228.791 C 64.196 229.741,63.831 230.682,63.657 230.883 C 63.482 231.083,63.340 231.721,63.340 232.300 C 63.340 232.879,63.167 233.459,62.956 233.589 C 62.745 233.720,62.572 234.238,62.572 234.741 C 62.572 235.244,62.399 235.762,62.188 235.893 C 61.977 236.023,61.804 236.551,61.804 237.067 C 61.804 237.582,61.631 238.004,61.420 238.004 C 61.209 238.004,61.036 238.608,61.036 239.347 C 61.036 240.086,60.864 240.691,60.653 240.691 C 60.441 240.691,60.269 240.929,60.269 241.220 C 60.269 241.511,60.030 241.946,59.739 242.188 C 59.447 242.430,58.980 243.661,58.700 244.922 C 58.420 246.184,58.054 247.217,57.886 247.217 C 57.719 247.217,57.582 247.735,57.582 248.369 C 57.582 249.002,57.409 249.520,57.198 249.520 C 56.987 249.520,56.814 249.810,56.814 250.165 C 56.814 250.886,56.130 253.198,55.615 254.217 C 55.430 254.584,55.278 255.222,55.278 255.634 C 55.278 256.047,55.106 256.491,54.894 256.622 C 54.683 256.752,54.511 257.246,54.511 257.719 C 54.511 258.193,54.368 258.744,54.193 258.944 C 54.019 259.145,53.643 260.086,53.358 261.036 C 53.073 261.987,52.663 263.109,52.446 263.532 C 52.230 263.954,52.011 264.551,51.960 264.859 C 51.909 265.166,51.709 265.771,51.515 266.202 C 50.932 267.499,50.288 269.686,50.288 270.373 C 50.288 270.727,50.115 271.017,49.904 271.017 C 49.693 271.017,49.520 271.536,49.520 272.169 C 49.520 272.802,49.347 273.321,49.136 273.321 C 48.925 273.321,48.752 273.829,48.752 274.450 C 48.752 275.070,48.580 275.685,48.369 275.816 C 48.157 275.946,47.985 276.561,47.985 277.182 C 47.985 277.803,47.812 278.311,47.601 278.311 C 47.390 278.311,47.217 278.808,47.217 279.416 C 47.217 280.023,46.958 280.735,46.641 280.998 C 46.324 281.261,46.063 281.757,46.059 282.101 C 46.053 282.850,45.164 285.482,44.793 285.853 C 44.648 285.998,44.530 286.606,44.530 287.204 C 44.530 287.802,44.357 288.292,44.146 288.292 C 43.935 288.292,43.762 288.810,43.762 289.443 C 43.762 290.077,43.589 290.595,43.378 290.595 C 43.167 290.595,42.994 291.017,42.994 291.532 C 42.994 292.047,42.821 292.576,42.610 292.706 C 42.399 292.837,42.226 293.452,42.226 294.073 C 42.226 294.693,42.054 295.202,41.843 295.202 C 41.631 295.202,41.459 295.806,41.459 296.545 C 41.459 297.284,41.320 297.889,41.151 297.889 C 40.982 297.889,40.522 299.012,40.130 300.384 C 39.737 301.756,39.271 302.879,39.094 302.879 C 38.917 302.879,38.772 303.153,38.772 303.489 C 38.772 304.159,36.586 311.118,36.042 312.183 C 35.854 312.550,35.701 313.187,35.701 313.600 C 35.701 314.012,35.528 314.457,35.317 314.587 C 35.106 314.718,34.933 315.236,34.933 315.739 C 34.933 316.242,34.760 316.760,34.549 316.891 C 34.338 317.021,34.165 317.437,34.165 317.814 C 34.165 318.440,33.518 320.085,32.605 321.780 C 32.407 322.146,32.246 322.870,32.246 323.389 C 32.246 323.907,32.073 324.438,31.862 324.568 C 31.651 324.699,31.478 325.217,31.478 325.720 C 31.478 326.223,31.305 326.741,31.094 326.871 C 30.883 327.002,30.710 327.520,30.710 328.023 C 30.710 328.526,30.537 329.044,30.326 329.175 C 30.115 329.305,29.942 329.713,29.942 330.080 C 29.942 330.448,29.726 331.214,29.463 331.782 L 28.983 332.816 23.160 332.819 C 16.674 332.822,16.123 332.924,16.123 334.129 C 16.123 334.592,15.979 335.135,15.803 335.336 C 15.627 335.536,14.990 337.255,14.388 339.155 C 13.786 341.056,13.153 342.774,12.981 342.975 C 12.809 343.176,12.668 343.727,12.668 344.200 C 12.668 344.673,12.495 345.167,12.284 345.298 C 12.073 345.428,11.900 346.043,11.900 346.664 C 11.900 347.285,11.727 347.793,11.516 347.793 C 11.305 347.793,11.132 348.311,11.132 348.944 C 11.132 349.578,10.960 350.096,10.749 350.096 C 10.537 350.096,10.365 350.701,10.365 351.440 C 10.365 352.179,10.192 352.783,9.981 352.783 C 9.770 352.783,9.597 353.217,9.597 353.748 C 9.597 354.279,9.424 355.056,9.213 355.475 C 9.002 355.895,8.668 356.562,8.472 356.958 C 8.275 357.355,7.997 358.305,7.853 359.070 C 7.710 359.835,7.439 360.461,7.251 360.461 C 7.063 360.461,6.910 360.809,6.910 361.234 C 6.910 362.179,6.035 365.067,5.748 365.067 C 5.635 365.067,5.503 365.535,5.456 366.106 C 5.408 366.677,5.198 367.316,4.988 367.526 C 4.778 367.736,4.607 368.295,4.607 368.768 C 4.607 369.241,4.434 369.735,4.223 369.866 C 4.012 369.996,3.839 370.601,3.839 371.209 C 3.839 371.818,3.666 372.422,3.455 372.553 C 3.244 372.683,3.071 373.202,3.071 373.704 C 3.071 374.207,2.898 374.726,2.687 374.856 C 2.476 374.987,2.303 375.331,2.303 375.621 C 2.303 375.912,2.103 376.636,1.857 377.230 C 1.612 377.825,1.441 378.446,1.477 378.610 C 1.514 378.775,1.305 379.380,1.015 379.954 C 0.724 380.528,0.369 381.646,0.226 382.438 L -0.035 383.877 58.831 383.877 L 117.696 383.877 118.157 382.602 C 118.411 381.901,118.618 381.037,118.618 380.683 C 118.618 380.328,118.791 380.038,119.002 380.038 C 119.213 380.038,119.386 379.791,119.386 379.489 C 119.386 378.833,121.232 372.837,121.726 371.886 C 121.917 371.520,122.073 370.796,122.073 370.277 C 122.073 369.759,122.246 369.228,122.457 369.098 C 122.668 368.967,122.841 368.363,122.841 367.754 C 122.841 367.146,123.013 366.541,123.225 366.411 C 123.436 366.280,123.608 365.665,123.608 365.045 C 123.608 364.424,123.781 363.916,123.992 363.916 C 124.203 363.916,124.376 363.311,124.376 362.572 C 124.376 361.833,124.549 361.228,124.760 361.228 C 124.971 361.228,125.144 360.745,125.144 360.154 C 125.144 359.562,125.290 358.915,125.468 358.714 C 125.646 358.513,126.091 357.313,126.457 356.046 C 127.114 353.771,127.599 352.456,128.260 351.157 C 128.446 350.790,128.599 350.066,128.599 349.548 C 128.599 349.030,128.772 348.499,128.983 348.369 C 129.194 348.238,129.367 347.633,129.367 347.025 C 129.367 346.416,129.539 345.812,129.750 345.681 C 129.962 345.551,130.134 345.020,130.134 344.502 C 130.134 343.984,130.286 343.260,130.471 342.893 C 131.037 341.773,131.670 339.532,131.670 338.648 C 131.670 338.188,131.843 337.812,132.054 337.812 C 132.265 337.812,132.438 337.537,132.438 337.201 C 132.438 336.864,132.852 335.353,133.358 333.842 C 133.865 332.330,134.455 330.403,134.670 329.559 C 135.528 326.193,136.041 324.551,136.343 324.203 C 136.518 324.003,136.660 323.269,136.660 322.572 C 136.660 321.875,136.813 321.305,137.001 321.305 C 137.320 321.305,137.437 320.911,138.057 317.754 C 138.192 317.068,138.439 316.417,138.608 316.308 C 138.776 316.198,138.984 315.680,139.070 315.156 C 139.157 314.632,139.427 313.717,139.671 313.123 C 139.915 312.528,140.115 311.878,140.115 311.677 C 140.115 311.041,141.061 308.253,141.277 308.253 C 141.390 308.253,141.520 307.812,141.564 307.273 C 141.609 306.734,141.819 305.968,142.032 305.571 C 142.245 305.174,142.418 304.492,142.418 304.056 C 142.418 303.620,142.591 303.263,142.802 303.263 C 143.013 303.263,143.186 302.755,143.186 302.134 C 143.186 301.513,143.359 300.898,143.570 300.768 C 143.781 300.637,143.954 300.106,143.954 299.588 C 143.954 299.070,144.105 298.346,144.291 297.979 C 144.476 297.613,144.833 296.622,145.084 295.777 C 145.335 294.933,145.681 293.896,145.853 293.474 C 146.703 291.386,147.371 289.473,147.795 287.908 C 148.053 286.958,148.393 285.835,148.551 285.413 C 149.271 283.487,149.712 281.835,149.712 281.067 C 149.712 280.607,149.885 280.230,150.096 280.230 C 150.307 280.230,150.480 279.616,150.480 278.864 C 150.480 278.113,150.616 277.582,150.782 277.685 C 150.949 277.788,151.120 277.409,151.162 276.844 C 151.205 276.278,151.397 275.470,151.590 275.048 C 151.782 274.626,152.396 272.812,152.953 271.017 C 153.511 269.223,154.072 267.495,154.201 267.179 C 154.329 266.862,154.484 266.344,154.544 266.027 C 154.756 264.912,155.549 262.372,155.892 261.713 C 156.082 261.347,156.238 260.613,156.238 260.082 C 156.238 259.551,156.411 259.117,156.622 259.117 C 156.833 259.117,157.006 258.523,157.006 257.796 C 157.006 257.070,157.179 256.368,157.390 256.238 C 157.601 256.108,157.774 255.503,157.774 254.894 C 157.774 254.286,157.946 253.681,158.157 253.551 C 158.369 253.420,158.541 252.840,158.541 252.261 C 158.541 251.683,158.747 251.004,158.998 250.752 C 159.249 250.501,159.489 250.078,159.530 249.812 C 159.571 249.546,159.904 248.421,160.269 247.313 L 160.933 245.298 187.952 245.298 C 214.441 245.298,214.971 245.283,214.971 244.552 C 214.971 244.143,214.798 243.701,214.587 243.570 C 214.376 243.440,214.203 242.753,214.203 242.044 C 214.203 241.335,214.036 240.697,213.832 240.627 C 213.627 240.557,213.418 239.938,213.366 239.251 C 213.315 238.565,213.136 238.004,212.970 238.004 C 212.804 238.004,212.668 237.409,212.668 236.683 C 212.668 235.956,212.495 235.255,212.284 235.125 C 212.073 234.994,211.900 234.495,211.900 234.014 C 211.900 233.534,211.788 233.030,211.652 232.893 C 211.282 232.524,210.008 228.703,209.993 227.922 C 209.986 227.550,209.829 226.945,209.644 226.578 C 209.036 225.374,208.445 223.189,208.445 222.142 C 208.445 221.576,208.273 221.113,208.061 221.113 C 207.850 221.113,207.678 220.509,207.678 219.770 C 207.678 219.031,207.505 218.426,207.294 218.426 C 207.083 218.426,206.910 217.836,206.910 217.115 C 206.910 216.393,206.753 215.745,206.562 215.675 C 206.371 215.605,206.156 215.029,206.084 214.395 C 206.012 213.762,205.863 213.157,205.753 213.052 C 205.518 212.826,204.631 209.795,204.427 208.523 C 204.350 208.038,204.078 207.390,203.824 207.083 C 203.569 206.777,203.471 206.526,203.605 206.526 C 203.739 206.526,203.588 205.900,203.268 205.135 C 202.949 204.371,202.687 203.334,202.687 202.832 C 202.687 202.330,202.514 201.919,202.303 201.919 C 202.092 201.919,201.919 201.349,201.919 200.653 C 201.919 199.956,201.761 199.222,201.568 199.021 C 201.375 198.821,201.159 198.225,201.088 197.697 L 200.960 196.737 138.370 196.640 C 90.006 196.565,75.675 196.648,75.318 197.005 " stroke="none" fill="#bd2c2c" fill-rule="evenodd"></path><path id="path4" d="" stroke="none" fill="#ff0000" fill-rule="evenodd"></path></g></svg>