<?xml version="1.0" encoding="utf-8"?>
<svg xmlns="http://www.w3.org/2000/svg">
<symbol id="banknote" viewBox="0 0 32 32">
<g id="banknote">
	<path fill-rule="evenodd" clip-rule="evenodd" fill="#333333" d="M31.415,10.586l-10-10C20.919,0.09,20.2-0.109,19.519,0.059
		c-0.359,0.088-0.68,0.273-0.934,0.527c-0.227,0.227-0.398,0.508-0.496,0.822c-0.453,1.469-1.236,2.746-2.395,3.904
		C14.146,6.859,12.13,8.031,9.997,9.27c-2.264,1.312-4.603,2.672-6.52,4.588c-1.629,1.631-2.738,3.445-3.388,5.551
		c-0.219,0.711-0.028,1.48,0.496,2.006l10,10c0.496,0.496,1.215,0.695,1.896,0.527c0.359-0.09,0.68-0.273,0.934-0.527
		c0.227-0.227,0.398-0.508,0.496-0.824c0.454-1.469,1.237-2.746,2.397-3.904c1.547-1.547,3.562-2.717,5.697-3.955
		c2.262-1.314,4.602-2.674,6.518-4.59c1.629-1.629,2.738-3.445,3.389-5.551C32.13,11.881,31.938,11.109,31.415,10.586z M12,30
		C8.688,26.688,5.312,23.311,2,20c2.842-9.201,15.16-8.799,18-18c3.312,3.311,6.689,6.688,10.002,10
		C27.159,21.199,14.841,20.799,12,30z"/>
	<path fill-rule="evenodd" clip-rule="evenodd" fill="#333333" d="M19.562,14.9c-0.326-0.273-0.654-0.459-0.984-0.551
		c-0.328-0.092-0.656-0.129-0.988-0.105c-0.328,0.025-0.664,0.1-1,0.229c-0.336,0.131-0.674,0.273-1.014,0.438
		c-0.537-0.617-1.074-1.227-1.611-1.793c0.242-0.219,0.477-0.33,0.703-0.338c0.227-0.01,0.445,0.014,0.652,0.066
		c0.211,0.053,0.404,0.098,0.582,0.133c0.18,0.035,0.336-0.004,0.473-0.119c0.145-0.125,0.225-0.287,0.236-0.482
		c0.01-0.197-0.064-0.389-0.229-0.576c-0.211-0.242-0.465-0.389-0.77-0.443c-0.301-0.053-0.609-0.049-0.93,0.021
		c-0.316,0.072-0.617,0.191-0.902,0.359s-0.514,0.34-0.684,0.508c-0.065-0.062-0.13-0.123-0.195-0.184
		c-0.072-0.066-0.162-0.102-0.27-0.1c-0.109,0-0.199,0.047-0.273,0.133c-0.072,0.084-0.105,0.182-0.092,0.285
		c0.01,0.107,0.053,0.189,0.127,0.252c0.065,0.055,0.13,0.109,0.195,0.166c-0.256,0.309-0.467,0.65-0.633,1.01
		c-0.168,0.361-0.268,0.719-0.305,1.066c-0.039,0.35-0.002,0.67,0.105,0.967c0.107,0.299,0.305,0.553,0.594,0.793
		c0.471,0.391,1.025,0.557,1.668,0.52c0.641-0.039,1.332-0.23,2.075-0.629c0.59,0.682,1.182,1.359,1.773,1.988
		c-0.25,0.211-0.469,0.332-0.662,0.371c-0.193,0.041-0.365,0.037-0.521-0.01c-0.156-0.049-0.301-0.119-0.434-0.209
		c-0.133-0.092-0.264-0.17-0.395-0.234c-0.129-0.064-0.262-0.1-0.398-0.102s-0.281,0.064-0.441,0.201
		c-0.164,0.143-0.246,0.309-0.246,0.496c0,0.186,0.086,0.375,0.254,0.566c0.17,0.191,0.391,0.352,0.658,0.479
		s0.569,0.207,0.901,0.229c0.332,0.023,0.682-0.027,1.051-0.164c0.371-0.135,0.738-0.379,1.1-0.742
		c0.174,0.17,0.35,0.332,0.525,0.488c0.074,0.064,0.164,0.096,0.273,0.088c0.105-0.004,0.197-0.053,0.27-0.141
		c0.074-0.09,0.105-0.189,0.094-0.293c-0.01-0.105-0.053-0.186-0.125-0.244c-0.176-0.141-0.352-0.289-0.527-0.445
		c0.299-0.367,0.539-0.754,0.717-1.137c0.178-0.385,0.283-0.756,0.318-1.1c0.035-0.346-0.006-0.658-0.119-0.941
		C20.046,15.383,19.847,15.137,19.562,14.9z M13.971,15.578c-0.283,0.012-0.53-0.082-0.746-0.291
		c-0.092-0.088-0.156-0.195-0.195-0.322c-0.041-0.127-0.055-0.266-0.039-0.418c0.014-0.15,0.059-0.307,0.137-0.465
		c0.074-0.158,0.184-0.316,0.324-0.469c0.507,0.504,1.013,1.057,1.52,1.629C14.588,15.453,14.254,15.566,13.971,15.578z
		 M18.688,17.58c-0.09,0.166-0.193,0.314-0.314,0.443c-0.561-0.566-1.121-1.188-1.68-1.826c0.143-0.064,0.293-0.131,0.455-0.199
		s0.324-0.113,0.486-0.141c0.166-0.025,0.33-0.018,0.494,0.021c0.162,0.041,0.316,0.129,0.459,0.268
		c0.141,0.141,0.23,0.287,0.266,0.445c0.039,0.16,0.041,0.322,0.014,0.488C18.839,17.246,18.78,17.412,18.688,17.58z"/>
	<path fill-rule="evenodd" clip-rule="evenodd" fill="#333333" d="M14.717,22.18h-0.002c-0.625,0.48-1.235,0.986-1.8,1.553
		c-0.543,0.543-1.034,1.115-1.461,1.699l-0.684,0.934l0.002,0.002c-0.125,0.195-0.104,0.457,0.066,0.627
		c0.195,0.195,0.514,0.195,0.71,0c0.03-0.031,0.054-0.064,0.074-0.1l0.639-0.875c0.396-0.541,0.854-1.074,1.361-1.58
		c0.561-0.561,1.081-0.994,1.714-1.475l-0.002-0.002c0.018-0.014,0.035-0.025,0.051-0.041c0.196-0.195,0.196-0.514,0-0.709
		C15.204,22.029,14.914,22.021,14.717,22.18z"/>
	<path fill-rule="evenodd" clip-rule="evenodd" fill="#333333" d="M18.378,7.715c-0.523,0.523-1.09,0.994-1.678,1.443
		c-0.041,0.023-0.082,0.049-0.117,0.086c-0.197,0.197-0.197,0.518,0,0.715c0.191,0.193,0.5,0.197,0.699,0.014l0.004,0.002
		c0.625-0.48,1.234-0.988,1.799-1.553c0.543-0.543,1.033-1.113,1.461-1.697l0.684-0.938l-0.002-0.002
		c0.17-0.199,0.162-0.496-0.025-0.684c-0.197-0.197-0.516-0.197-0.713,0c-0.037,0.037-0.064,0.08-0.088,0.123l-0.664,0.91
		C19.341,6.678,18.884,7.209,18.378,7.715z"/>
</g>

</symbol>
<symbol id="bubble" viewBox="0 0 32 32">
<g id="bubble">
	<path fill-rule="evenodd" clip-rule="evenodd" fill="#333333" d="M16,7c-5.963,0-11,3.206-11,7c0,0.276,0.224,0.5,0.5,0.5
		S6,14.276,6,14c0-3.196,4.673-6,10-6c0.275,0,0.5-0.224,0.5-0.5S16.276,7,16,7z"/>
	<path fill-rule="evenodd" clip-rule="evenodd" fill="#333333" d="M16,2C7.163,2,0,7.373,0,14c0,4.127,2.779,7.766,7.008,9.926
		C7.008,23.953,7,23.971,7,24c0,1.793-1.339,3.723-1.928,4.736c0.001,0,0.002,0,0.002,0C5.027,28.846,5,28.967,5,29.094
		C5,29.594,5.405,30,5.906,30C6,30,6.165,29.975,6.161,29.986c3.125-0.512,6.069-3.383,6.753-4.215C13.913,25.918,14.943,26,16,26
		c8.835,0,16-5.373,16-12C32,7.373,24.836,2,16,2z M16,24c-0.917,0-1.858-0.07-2.796-0.207c-0.097-0.016-0.194-0.021-0.29-0.021
		c-0.594,0-1.163,0.264-1.546,0.73c-0.428,0.521-1.646,1.684-3.085,2.539c0.39-0.895,0.695-1.898,0.716-2.932
		c0.006-0.064,0.009-0.129,0.009-0.184c0-0.752-0.421-1.439-1.09-1.781C4.212,20.252,2,17.207,2,14C2,8.486,8.28,4,16,4
		c7.718,0,14,4.486,14,10C30,19.514,23.719,24,16,24z"/>
</g>

</symbol>
<symbol id="bulb" viewBox="0 0 32 32">
<g id="bulb">
	<path fill="#333333" d="M16,0C9.924,0,5,4.924,5,11c0,4.031,3.688,8.303,5.031,12.055C12.034,28.65,11.812,32,16,32
		c4.25,0,3.965-3.334,5.969-8.922C23.316,19.318,27,15,27,11C27,4.924,22.074,0,16,0z M18.592,27.176l-4.958,0.619
		c-0.177-0.512-0.367-1.111-0.598-1.893c-0.003-0.01-0.007-0.021-0.009-0.031l6.188-0.773c-0.088,0.295-0.182,0.605-0.264,0.883
		C18.82,26.43,18.703,26.82,18.592,27.176z M12.736,24.908c-0.182-0.602-0.387-1.236-0.615-1.908h7.766
		c-0.123,0.359-0.246,0.719-0.352,1.059L12.736,24.908z M16,30c-1.013,0-1.479-0.117-1.997-1.25l4.238-0.531
		C17.627,29.873,17.18,30,16,30z M20.672,21h-9.333c-0.498-1.08-1.096-2.16-1.686-3.217C8.348,15.448,7,13.033,7,11
		c0-4.963,4.037-9,9-9c4.963,0,9,4.037,9,9c0,2.018-1.35,4.446-2.656,6.795C21.76,18.848,21.166,19.926,20.672,21z"/>
	<path fill="#333333" d="M16,5c-3.309,0-6,2.691-6,6c0,0.276,0.224,0.5,0.5,0.5S11,11.276,11,11c0-2.757,2.243-5,5-5
		c0.276,0,0.5-0.224,0.5-0.5S16.275,5,16,5z"/>
</g>

</symbol>
<symbol id="calendar" viewBox="0 0 32 32">
<g id="calendar_1_">
	<path fill="#333332" d="M29.334,3H25V1c0-0.553-0.447-1-1-1s-1,0.447-1,1v2h-6V1c0-0.553-0.448-1-1-1s-1,0.447-1,1v2H9V1
		c0-0.553-0.448-1-1-1S7,0.447,7,1v2H2.667C1.194,3,0,4.193,0,5.666v23.667C0,30.806,1.194,32,2.667,32h26.667
		C30.807,32,32,30.806,32,29.333V5.666C32,4.193,30.807,3,29.334,3z M30,29.333C30,29.701,29.701,30,29.334,30H2.667
		C2.299,30,2,29.701,2,29.333V5.666C2,5.299,2.299,5,2.667,5H7v2c0,0.553,0.448,1,1,1s1-0.447,1-1V5h6v2c0,0.553,0.448,1,1,1
		s1-0.447,1-1V5h6v2c0,0.553,0.447,1,1,1s1-0.447,1-1V5h4.334C29.701,5,30,5.299,30,5.666V29.333z"/>
	<rect x="7" y="12" fill="#333332" width="4" height="3"/>
	<rect x="7" y="17" fill="#333332" width="4" height="3"/>
	<rect x="7" y="22" fill="#333332" width="4" height="3"/>
	<rect x="14" y="22" fill="#333332" width="4" height="3"/>
	<rect x="14" y="17" fill="#333332" width="4" height="3"/>
	<rect x="14" y="12" fill="#333332" width="4" height="3"/>
	<rect x="21" y="22" fill="#333332" width="4" height="3"/>
	<rect x="21" y="17" fill="#333332" width="4" height="3"/>
	<rect x="21" y="12" fill="#333332" width="4" height="3"/>
</g>

</symbol>
<symbol id="camera" viewBox="0 0 32 32">
<g id="camera">
	<path fill-rule="evenodd" clip-rule="evenodd" fill="#333333" d="M16,10.001c-4.419,0-8,3.581-8,8c0,4.418,3.581,8,8,8
		c4.418,0,8-3.582,8-8C24,13.583,20.418,10.001,16,10.001z M20.555,21.906c-2.156,2.516-5.943,2.807-8.459,0.65
		c-2.517-2.156-2.807-5.944-0.65-8.459c2.155-2.517,5.943-2.807,8.459-0.65C22.42,15.602,22.711,19.391,20.555,21.906z"/>
	<path fill-rule="evenodd" clip-rule="evenodd" fill="#333333" d="M16,14.001c-2.209,0-3.999,1.791-4,3.999v0.002
		c0,0.275,0.224,0.5,0.5,0.5s0.5-0.225,0.5-0.5V18c0.001-1.656,1.343-2.999,3-2.999c0.276,0,0.5-0.224,0.5-0.5
		S16.276,14.001,16,14.001z"/>
	<path fill-rule="evenodd" clip-rule="evenodd" fill="#333333" d="M29.492,9.042l-4.334-0.723l-1.373-3.434
		C23.326,3.74,22.232,3,21,3H11C9.768,3,8.674,3.74,8.214,4.886L6.842,8.319L2.509,9.042C1.055,9.283,0,10.527,0,12v15
		c0,1.654,1.346,3,3,3h26c1.654,0,3-1.346,3-3V12C32,10.527,30.945,9.283,29.492,9.042z M30,27c0,0.553-0.447,1-1,1H3
		c-0.553,0-1-0.447-1-1V12c0-0.489,0.354-0.906,0.836-0.986l5.444-0.907l1.791-4.478C10.224,5.25,10.591,5,11,5h10
		c0.408,0,0.775,0.249,0.928,0.629l1.791,4.478l5.445,0.907C29.646,11.094,30,11.511,30,12V27z"/>
</g>

</symbol>
<symbol id="clip" viewBox="0 0 32 32">
<path id="clip_2_" fill="#333333" d="M29.363,4.637c-3.514-3.516-9.213-3.516-12.727,0L2.046,19.054c-2.729,2.729-2.729,7.171,0,9.9
	c2.729,2.729,7.17,2.729,9.898,0l14.59-14.418c1.953-1.953,1.953-5.118,0-7.071c-1.953-1.952-5.119-1.952-7.07,0L8.496,18.433
	c-0.391,0.392-0.391,1.023,0,1.415c0.391,0.391,1.023,0.391,1.414,0L20.879,8.879c1.17-1.169,3.072-1.169,4.242,0
	c1.17,1.17,1.17,3.073,0,4.243l-14.59,14.417c-1.953,1.953-5.117,1.953-7.07,0c-1.953-1.952-1.953-5.118,0-7.07L17.908,6.192
	c2.734-2.734,7.168-2.734,9.898,0c2.736,2.735,2.736,7.165,0.002,9.899L16.982,26.918c-0.393,0.392-0.393,1.023,0,1.414
	c0.391,0.392,1.023,0.392,1.414,0l10.967-10.968C32.879,13.85,32.879,8.151,29.363,4.637z"/>

</symbol>
<symbol id="clock" viewBox="0 0 32 32">
<g id="clock">
	<circle fill="#333333" cx="16" cy="10" r="1"/>
	<circle fill="#333333" cx="16" cy="22" r="1"/>
	<circle fill="#333333" cx="10" cy="16" r="1"/>
	<circle fill="#333333" cx="22" cy="16" r="1"/>
	<circle fill="#333333" cx="11.757" cy="20.242" r="1"/>
	<circle fill="#333333" cx="11.757" cy="11.757" r="1"/>
	<circle fill="#333333" cx="20.242" cy="20.242" r="1"/>
	<path fill="#333333" d="M26,14c-0.07,0-0.129,0.033-0.197,0.04c-0.348-1.745-1.17-3.306-2.297-4.594L22.07,1.634
		C21.895,0.687,21.068,0,20.104,0h-8c-0.964,0-1.79,0.688-1.967,1.635l-1.4,7.549C7.057,10.971,6,13.352,6,16
		c0,2.583,1.014,4.905,2.621,6.678l1.412,7.688C10.209,31.312,11.036,32,12,32h8c0.963,0,1.789-0.688,1.967-1.635l1.424-7.682
		c1.189-1.311,2.053-2.92,2.412-4.725C25.871,17.967,25.93,18,26,18c1.104,0,2-0.896,2-2C28,14.895,27.104,14,26,14z M12.104,2h8
		l1,5.387C19.627,6.528,17.936,6,16.104,6c-1.831,0-3.523,0.528-5,1.387L12.104,2z M20,30h-8l-1-5.387
		C12.476,25.471,14.168,26,16,26c1.831,0,3.524-0.529,5-1.387L20,30z M16,24c-4.411,0-8-3.59-8-8c0-4.411,3.589-8,8-8
		c4.411,0,8,3.589,8,8C24,20.41,20.41,24,16,24z"/>
	<path fill="#333333" d="M20.941,11.026c-0.121-0.121-0.316-0.131-0.453-0.021l-5.192,4.285C15.105,15.482,15,15.736,15,16.008
		c0,0.263,0.102,0.512,0.289,0.698s0.438,0.29,0.707,0.292c0.25-0.002,0.51-0.095,0.699-0.277l1.848-2.225l2.426-3.021
		C21.074,11.342,21.062,11.147,20.941,11.026z"/>
</g>

</symbol>
<symbol id="cloud" viewBox="0 0 32 32">
<path id="cloud" fill-rule="evenodd" clip-rule="evenodd" fill="#333333" d="M25.914,13.143C25.477,8.58,21.678,5,17,5
	c-3.619,0-6.717,2.148-8.146,5.23C8.424,10.094,7.976,10,7.501,10c-2.485,0-4.5,2.016-4.5,4.5c0,0.494,0.099,0.961,0.246,1.404
	c-1.933,1.127-3.246,3.195-3.246,5.594c0,3.59,2.91,6.5,6.5,6.5V28H24.5v-0.002c4.143,0,7.5-3.357,7.5-7.5
	C32,16.842,29.379,13.805,25.914,13.143z M24.5,25.998V26H6.501c-2.481-0.002-4.5-2.02-4.5-4.502c0-1.6,0.843-3.045,2.254-3.867
	c1.371-0.787,1.465-0.943,0.89-2.357c-0.097-0.291-0.144-0.544-0.144-0.773c0-1.379,1.121-2.5,2.5-2.5c0,0,0.656-0.047,1.353,0.23
	c1.147,0.457,1.272,0.02,1.814-1.159C11.815,8.599,14.3,7,17,7c3.6,0,6.576,2.723,6.924,6.334c0.123,1.432,0.123,1.432,1.615,1.773
	C28.125,15.601,30,17.869,30,20.498C30,23.531,27.533,25.998,24.5,25.998z"/>

</symbol>
<symbol id="cup" viewBox="0 0 32 32">
<path id="cup" fill="#333333" d="M28.111,5.022l-1.215-3.655C26.625,0.55,25.861,0,25,0H7C6.138,0,5.375,0.55,5.102,1.367
	L3.877,5.024C2.833,5.091,2,5.939,2,7v3c0,1.104,0.896,2,2,2h1.034c0,0.075-0.03,0.146-0.021,0.221l2,18C7.125,31.232,7.98,32,9,32
	h14c1.02,0,1.875-0.768,1.986-1.779l2-18c0.01-0.075-0.021-0.146-0.021-0.221H28c1.104,0,2-0.896,2-2V7
	C30,5.935,29.16,5.083,28.111,5.022z M7,2h18l1,3H6L7,2z M9,30l-0.333-3h14.666L23,30H9z M23.443,26H8.555L7.444,16h17.111
	L23.443,26z M24.666,15H7.333L7,12h18L24.666,15z M28,10H4V7h24V10z"/>

</symbol>
<symbol id="data" viewBox="0 0 32 32">
<g id="data">
	<path fill="#333333" d="M16,0C9.256,0,2,2.033,2,6.5v19C2,29.965,9.256,32,16,32c6.743,0,14-2.035,14-6.5v-19
		C30,2.033,22.742,0,16,0z M28,25.5c0,2.484-5.373,4.5-12,4.5c-6.628,0-12-2.016-12-4.5v-3.736C6.066,23.893,11.05,25,16,25
		c4.95,0,9.934-1.107,12-3.236V25.5z M28,19.5h-0.004c0,0.01,0.004,0.021,0.004,0.031C28,22,22.627,24,16,24c-6.627,0-12-2-12-4.469
		c0-0.01,0.004-0.021,0.004-0.031H4v-3.736C6.066,17.893,11.05,19,16,19c4.95,0,9.934-1.107,12-3.236V19.5z M28,13.5h-0.004
		c0,0.01,0.004,0.021,0.004,0.031C28,16,22.627,18,16,18c-6.627,0-12-2-12-4.469c0-0.01,0.004-0.021,0.004-0.031H4v-3.436
		C6.621,12.061,11.425,13,16,13c4.575,0,9.379-0.939,12-2.936V13.5z M16,11C9.372,11,4,8.984,4,6.5C4,4.014,9.372,2,16,2
		c6.627,0,12,2.014,12,4.5C28,8.984,22.627,11,16,11z"/>
	<circle fill="#333333" cx="25" cy="26" r="1"/>
	<circle fill="#333333" cx="25" cy="20" r="1"/>
	<circle fill="#333333" cx="25" cy="14" r="1"/>
</g>

</symbol>
<symbol id="diamond" viewBox="0 0 32 32">
<path id="diamond" fill="#333333" d="M31.414,9.677l-5.08-5.081C25.959,4.221,25.449,4.01,24.92,4.01H7.081
	c-0.53,0-1.039,0.211-1.414,0.586l-5.08,5.081C0.194,10.069-0.002,10.586,0,11.104c0.003,0.47,0.171,0.939,0.506,1.316
	l13.999,14.908C14.885,27.756,15.429,28,16,28c0.571,0,1.115-0.244,1.494-0.672l14-14.908c0.342-0.385,0.51-0.867,0.506-1.348
	C31.996,10.566,31.799,10.062,31.414,9.677z M18.219,11.01H13.78L16,9.161L18.219,11.01z M16.782,8.51l2.732-2.278l2.018,2.018
	L19,10.359L16.782,8.51z M13,10.359L10.468,8.25l2.018-2.018l2.733,2.278L13,10.359z M18.49,12.01L16,24.463L13.51,12.01H18.49z
	 M19.51,12.01h4.906l-7.359,12.269L19.51,12.01z M19.779,11.01l2.463-2.051l2.051,2.051H19.779z M20.707,6.01h3.512l-1.916,1.597
	L20.707,6.01z M16,7.86l-2.22-1.85h4.438L16,7.86z M9.696,7.607L7.78,6.01h3.513L9.696,7.607z M9.758,8.959l2.462,2.051H7.707
	L9.758,8.959z M12.49,12.01l2.453,12.269L7.583,12.01H12.49z M12.704,22.488L2.864,12.01h3.554L12.704,22.488z M25.582,12.01h3.555
	l-9.842,10.48L25.582,12.01z M25.707,11.01l-2.693-2.693l2.297-1.915l4.607,4.608H25.707z M6.686,6.4l2.301,1.917L6.293,11.01H2.006
	L6.686,6.4z"/>

</symbol>
<symbol id="display" viewBox="0 0 32 32">
<g id="monitor">
	<path fill="#333333" d="M27,4.996L5,5C4.447,5,4,5.443,4,5.996v14c0,0.553,0.447,1,1,1h22c0.553,0,1-0.447,1-1v-14
		C28,5.443,27.553,4.996,27,4.996z M27,20H5V5.996h22V20z"/>
	<path fill="#333333" d="M29,1H3C1.343,1,0,2.342,0,4v20c0,1.654,1.338,2.994,2.99,2.998H13v1.217l-6.242,0.811
		C6.312,29.137,6,29.537,6,29.996c0,0.553,0.447,1,1,1h18c0.553,0,1-0.447,1-1c0-0.459-0.312-0.859-0.758-0.971L19,28.215v-1.217
		h10.01C30.662,26.994,32,25.654,32,24V4C32,2.342,30.656,1,29,1z M30,24c0,0.551-0.449,1-1,1h-9h-8H3c-0.552,0-1-0.449-1-1V4
		c0-0.552,0.448-1,1-1h26c0.551,0,1,0.448,1,1V24z"/>
</g>

</symbol>
<symbol id="eye" viewBox="0 0 32 32">
<g id="eye">
	<path fill="#333333" d="M31.965,15.776c-0.01-0.042-0.004-0.087-0.02-0.128c-0.006-0.017-0.021-0.026-0.027-0.042
		c-0.01-0.024-0.008-0.051-0.021-0.074c-2.9-5.551-9.213-9.528-15.873-9.528c-6.661,0-12.973,3.971-15.875,9.521
		c-0.013,0.023-0.011,0.05-0.021,0.074c-0.007,0.016-0.021,0.025-0.027,0.042c-0.016,0.041-0.01,0.086-0.02,0.128
		c-0.018,0.075-0.035,0.147-0.035,0.224s0.018,0.148,0.035,0.224c0.01,0.042,0.004,0.087,0.02,0.128
		c0.006,0.017,0.021,0.026,0.027,0.042c0.01,0.024,0.008,0.051,0.021,0.074c2.901,5.551,9.214,9.528,15.875,9.528
		c6.66,0,12.973-3.971,15.873-9.521c0.014-0.023,0.012-0.05,0.021-0.074c0.006-0.016,0.021-0.025,0.027-0.042
		c0.016-0.041,0.01-0.086,0.02-0.128C31.982,16.148,32,16.076,32,16S31.982,15.851,31.965,15.776z M16.023,23.988
		c-5.615,0-11.112-3.191-13.851-7.995c2.754-4.81,8.243-7.99,13.851-7.99c5.613,0,11.111,3.192,13.85,7.995
		C27.119,20.809,21.631,23.988,16.023,23.988z"/>
	<path fill="#333333" d="M16.023,11.999c-0.002,0-0.004,0.001-0.006,0.001c-2.205,0.004-3.992,1.791-3.992,3.996
		c0,0.276,0.224,0.5,0.5,0.5c0.275,0,0.499-0.224,0.499-0.5c0-1.652,1.345-2.997,2.999-2.997v-0.001
		c0.275,0,0.498-0.224,0.498-0.499C16.521,12.222,16.299,11.999,16.023,11.999z"/>
	<path fill="#333333" d="M16,9c-3.867,0-7,3.134-7,7c0,3.866,3.134,7,7,7c3.865,0,7-3.135,7-7C23,12.133,19.865,9,16,9z M16,22
		c-3.309,0-6-2.691-6-6c0-3.309,2.691-6,6-6c3.309,0,6,2.691,6,6C22,19.309,19.309,22,16,22z"/>
</g>

</symbol>
<symbol id="fire" viewBox="0 0 32 32">
<g id="Layer_1">
	<g id="fire_1_">
		<path fill="#333333" d="M22,9c-0.062,2.675-2.07,4.934-2.07,4.934C19.93,8.958,16,5,16,5s-0.053,2.962-2.043,5.948
			C11.967,3.981,5.995,0,5.995,0C8.981,10.948,5,14.93,5,22.892C5,27.563,8.954,32,15,32c8.957,0,10.689-3.288,11.615-6.993
			C27.891,19.906,25.98,13.976,22,9z M24.676,24.521C24.033,27.09,23.307,30,15,30c-5.008,0-8-3.614-8-7.108
			c0-2.676,0.488-4.873,1.004-7.199c0.656-2.949,1.328-5.968,1.037-9.961c3.084,4.269,4.182,9.925,4.182,9.925
			s2.871-4.031,3.643-5.903C17.457,10.957,18,15,18,19c0,0,2.656-2.188,4.648-5.478C24.746,17.284,25.502,21.217,24.676,24.521z"/>
		<path fill="#333333" d="M22.432,16.795l-0.85,0.985c-1.053,1.228-2.049,2.392-4.708,3.73c-0.381-1.142-0.727-2.399-0.727-4.323
			v-1.709l-1.518,2.378c-0.512,0.811-0.936,1.483-1.568,2.376c-0.959-2.162-1.637-3.761-2.152-5.212l-0.479-1.35l-0.52,1.51
			c-0.66,1.921-1.285,3.735-1.285,8.444c0,0.276,0.223,0.5,0.5,0.5c0.275,0,0.5-0.224,0.5-0.5c0-3.609,0.359-5.396,0.84-6.941
			c0.52,1.322,1.176,2.825,2.037,4.75l0.352,0.784l0.508-0.692c0.83-1.13,1.324-1.89,1.865-2.743c0.158,1.479,0.523,2.54,0.885,3.59
			l0.182,0.528l0.506-0.239c2.703-1.284,3.968-2.453,4.972-3.575c0.156,1.864-0.09,3.904-0.674,5.353
			c-0.104,0.256,0.021,0.547,0.277,0.65c0.061,0.024,0.125,0.036,0.188,0.036c0.197,0,0.385-0.118,0.463-0.313
			c0.775-1.924,1.008-4.664,0.592-6.982L22.432,16.795z"/>
	</g>
</g>
<g id="Layer_2">
</g>

</symbol>
<symbol id="food" viewBox="0 0 32 32">
<g id="food_1_">
	<path fill="#333333" d="M29.5,21h-2.691c-0.045-0.239-0.1-0.473-0.16-0.706l4.799-2.399c0.494-0.247,0.693-0.848,0.447-1.342
		c-0.248-0.494-0.846-0.692-1.342-0.447l-4.578,2.288C24.229,14.626,20.42,12,16,12c-5.382,0-9.865,3.888-10.809,9H2.5
		C1.122,21,0,22.121,0,23.5c0,0.49,0.18,0.963,0.505,1.329L4,28.761V29.5C4,30.879,5.122,32,6.5,32h19c1.379,0,2.5-1.121,2.5-2.5
		v-0.739l3.494-3.932C31.82,24.463,32,23.99,32,23.5C32,22.121,30.879,21,29.5,21z M25.799,21h-0.562l0.498-0.25
		C25.754,20.834,25.781,20.915,25.799,21z M16,13c4.029,0,7.5,2.4,9.082,5.841l-0.891,0.445C22.775,16.171,19.645,14,16,14
		c-4.282,0-7.859,2.993-8.77,7H6.202C7.131,16.441,11.171,13,16,13z M20.576,21c-0.773-1.763-2.531-3-4.576-3s-3.802,1.237-4.576,3
		H10.35c0.826-2.326,3.043-4,5.65-4c2.465,0,4.588,1.496,5.508,3.627L20.764,21H20.576z M16,20c-0.883,0-1.67,0.391-2.22,1h-1.224
		c0.694-1.189,1.97-2,3.444-2c1.473,0,2.75,0.811,3.443,2h-1.225C17.67,20.391,16.883,20,16,20z M16,16
		c-3.165,0-5.842,2.112-6.705,5H8.263c0.892-3.444,4.017-6,7.737-6c3.246,0,6.043,1.948,7.295,4.734l-0.893,0.446
		C21.314,17.723,18.855,16,16,16z M26,28v1.5c0,0.276-0.225,0.5-0.5,0.5h-19C6.224,30,6,29.776,6,29.5V28l-4-4.5
		C2,23.224,2.224,23,2.5,23H5h1h1h1h1h1h1h1h1h6h1h1h1h1h1h1h1h1h2.5c0.275,0,0.5,0.224,0.5,0.5L26,28z"/>
	<path fill="#333333" d="M7.977,11.712c0.003,0.006,0.005,0.012,0.008,0.018c0,0,0.001,0,0.002,0C8.07,11.89,8.236,12,8.43,12
		c0.277,0,0.502-0.226,0.502-0.503c0-0.043-0.007-0.085-0.018-0.125c0.002-0.007,0.002-0.013,0-0.02
		c-0.375-0.882-0.019-1.85,0.419-2.892c0.473-1.126,0.98-2.376,0.422-3.647C9.684,4.63,9.507,4.5,9.299,4.5
		c-0.271,0-0.49,0.22-0.49,0.49c0,0.06,0.012,0.116,0.032,0.169c0,0.002,0,0.004,0.001,0.006c0.001,0.003,0.002,0.006,0.003,0.009
		C8.847,5.178,8.848,5.182,8.85,5.186c0.404,0.909,0.013,1.841-0.428,2.893C7.956,9.188,7.44,10.417,7.959,11.67
		C7.965,11.685,7.97,11.698,7.977,11.712z"/>
	<path fill="#333333" d="M20.154,11.566c0.004,0.006,0.006,0.012,0.008,0.018h0.002c0.084,0.16,0.25,0.271,0.443,0.271
		c0.277,0,0.504-0.226,0.504-0.503c0-0.043-0.008-0.085-0.018-0.125c0.002-0.007,0.002-0.013-0.002-0.02
		c-0.373-0.882-0.018-1.85,0.42-2.892c0.473-1.126,0.98-2.376,0.422-3.647c-0.072-0.184-0.248-0.313-0.457-0.313
		c-0.27,0-0.49,0.22-0.49,0.49c0,0.06,0.014,0.116,0.033,0.169c0,0.002,0,0.004,0,0.006c0.002,0.003,0.002,0.006,0.004,0.009
		c0.002,0.004,0.004,0.008,0.004,0.012c0.404,0.909,0.014,1.841-0.428,2.893c-0.465,1.109-0.98,2.339-0.461,3.592
		C20.143,11.539,20.148,11.553,20.154,11.566z"/>
	<path fill="#333333" d="M15.019,7.212c0.003,0.006,0.005,0.012,0.008,0.018c0,0,0.001,0,0.002,0c0.084,0.16,0.25,0.271,0.443,0.271
		c0.277,0,0.502-0.226,0.502-0.503c0-0.043-0.007-0.085-0.018-0.125c0.002-0.007,0.002-0.013,0-0.02
		c-0.375-0.882-0.019-1.85,0.419-2.892c0.473-1.126,0.98-2.376,0.422-3.647C16.725,0.13,16.549,0,16.34,0
		c-0.27,0-0.49,0.22-0.49,0.49c0,0.06,0.012,0.116,0.032,0.169c0,0.002,0,0.004,0.001,0.006c0.001,0.003,0.002,0.006,0.003,0.009
		c0.001,0.004,0.003,0.008,0.004,0.012c0.404,0.909,0.013,1.841-0.428,2.893c-0.466,1.109-0.982,2.339-0.462,3.592
		C15.007,7.185,15.012,7.198,15.019,7.212z"/>
</g>

</symbol>
<symbol id="heart" viewBox="0 0 32 32">
<g id="heart">
	<path fill-rule="evenodd" clip-rule="evenodd" fill="#333333" d="M29.193,5.265c-3.629-3.596-9.432-3.671-13.191-0.288
		C12.242,1.594,6.441,1.669,2.81,5.265c-3.741,3.704-3.741,9.709,0,13.415c1.069,1.059,11.053,10.941,11.053,10.941
		c1.183,1.172,3.096,1.172,4.278,0c0,0,10.932-10.822,11.053-10.941C32.936,14.974,32.936,8.969,29.193,5.265z M27.768,17.268
		L16.715,28.209c-0.393,0.391-1.034,0.391-1.425,0L4.237,17.268c-2.95-2.92-2.95-7.671,0-10.591
		c2.844-2.815,7.416-2.914,10.409-0.222l1.356,1.22l1.355-1.22c2.994-2.692,7.566-2.594,10.41,0.222
		C30.717,9.596,30.717,14.347,27.768,17.268z"/>
	<path fill-rule="evenodd" clip-rule="evenodd" fill="#333333" d="M9.253,7.501c-0.002,0-0.002,0.001-0.004,0.001
		c-2.345,0.002-4.246,1.903-4.246,4.249l0,0c0,0.276,0.224,0.5,0.5,0.5s0.5-0.224,0.5-0.5V11.75c0-1.794,1.455-3.249,3.249-3.249
		h0.001c0.276,0,0.5-0.224,0.5-0.5S9.53,7.501,9.253,7.501z"/>
</g>

</symbol>
<symbol id="key" viewBox="0 0 32 32">
<g id="key">
	<path fill="#333333" d="M23.004,0c-5.523,0-10,4.478-10,10c0,1.285,0.269,2.501,0.713,3.629L1.568,25.777
		C1.217,26.129,1,26.463,1,27v3c0,1.07,0.929,2,2,2h3c0.536,0,0.875-0.215,1.226-0.564L8.661,30h2.343c1.104,0,2-0.896,2-2v-2h2
		c1.104,0,2-0.896,2-2v-2.344l2.369-2.371C20.502,19.73,21.717,20,23.004,20c5.521,0,10-4.478,10-10S28.525,0,23.004,0z M23.004,18
		c-1.48,0-2.852-0.43-4.041-1.132l-0.344,0.343l-1.125,1.125l-1.905,1.906c-0.375,0.375-0.586,0.883-0.586,1.414V24h-2
		c-1.104,0-2,0.895-2,2v2H8.661c-0.53,0-1.039,0.211-1.414,0.586l-1.418,1.418L3.003,30L3,27.15l11.665-11.644
		c0,0,0,0.001,0.001,0.002l1.469-1.469c-0.702-1.189-1.132-2.56-1.132-4.04c0-4.418,3.583-8,8-8s8,3.582,8,8S27.422,18,23.004,18z"/>
	<path fill="#333333" d="M28.82,8.239c-1.121-1.562-2.486-2.925-4.055-4.054C24.51,4,24.18,3.954,23.883,4.058
		c-1.389,0.489-2.34,1.439-2.826,2.828c-0.037,0.104-0.055,0.212-0.055,0.319c0,0.199,0.062,0.396,0.182,0.563
		c1.125,1.564,2.488,2.928,4.053,4.053c0.256,0.184,0.584,0.231,0.881,0.128c1.391-0.486,2.342-1.438,2.83-2.828
		c0.037-0.104,0.055-0.212,0.055-0.319C29.002,8.603,28.939,8.406,28.82,8.239z M25.82,11.01C24.342,9.947,23.055,8.66,22,7.217
		c0.387-1.103,1.111-1.827,2.182-2.221c1.479,1.065,2.764,2.349,3.816,3.811C27.607,9.902,26.885,10.622,25.82,11.01z"/>
</g>

</symbol>
<symbol id="lab" viewBox="0 0 32 32">
<g id="lab_1_">
	<path fill="#333333" d="M20.682,3.732C20.209,3.26,19.582,3,18.914,3s-1.295,0.26-1.77,0.733l-1.41,1.412
		C15.261,5.617,15,6.245,15,6.914c0,0.471,0.129,0.922,0.371,1.313L1.794,13.666c-0.908,0.399-1.559,1.218-1.742,2.189
		c-0.185,0.977,0.125,1.979,0.834,2.687l12.72,12.58c0.548,0.548,1.276,0.859,2.045,0.877C15.669,32,15.711,32,15.729,32
		c0.202,0,0.407-0.021,0.61-0.062c0.994-0.206,1.808-0.893,2.177-1.828l5.342-13.376c0.402,0.265,0.875,0.407,1.367,0.407
		c0.67,0,1.297-0.261,1.768-0.733L28.4,15c0.477-0.474,0.738-1.103,0.738-1.773s-0.262-1.3-0.732-1.768L20.682,3.732z
		 M16.659,29.367c-0.124,0.313-0.397,0.544-0.727,0.612c-0.076,0.016-0.153,0.022-0.229,0.021c-0.254-0.006-0.499-0.108-0.682-0.292
		L2.293,17.12c-0.234-0.233-0.337-0.567-0.275-0.893c0.061-0.324,0.279-0.598,0.582-0.73l6.217-2.49
		c4.189,1.393,8.379,0.051,12.57,4.522L16.659,29.367z M26.992,13.58l-1.414,1.413c-0.195,0.196-0.512,0.196-0.707,0l-1.768-1.767
		l-1.432,3.589l0.119-0.303c-3.01-3.005-6.069-3.384-8.829-3.723c-0.887-0.109-1.747-0.223-2.592-0.405l8.491-3.401l-1.715-1.715
		c-0.195-0.195-0.195-0.512,0-0.707l1.414-1.415c0.195-0.195,0.512-0.195,0.707,0l7.725,7.727
		C27.189,13.068,27.189,13.385,26.992,13.58z"/>
	<path fill="#333333" d="M16.5,21c1.378,0,2.5-1.121,2.5-2.5S17.879,16,16.5,16c-1.379,0-2.5,1.121-2.5,2.5S15.122,21,16.5,21z
		 M16.5,17c0.828,0,1.5,0.672,1.5,1.5S17.328,20,16.5,20c-0.829,0-1.5-0.672-1.5-1.5S15.671,17,16.5,17z"/>
	<path fill="#333333" d="M29.5,0C28.121,0,27,1.121,27,2.5S28.121,5,29.5,5S32,3.879,32,2.5S30.879,0,29.5,0z M29.5,4
		C28.672,4,28,3.328,28,2.5S28.672,1,29.5,1S31,1.672,31,2.5S30.328,4,29.5,4z"/>
	<path fill="#333333" d="M8,17c0,1.103,0.897,2,2,2s2-0.897,2-2s-0.897-2-2-2S8,15.897,8,17z M10,16c0.552,0,1,0.447,1,1
		s-0.448,1-1,1s-1-0.447-1-1S9.448,16,10,16z"/>
	<circle fill="#333333" cx="13" cy="23" r="1"/>
	<circle fill="#333333" cx="29" cy="8" r="1"/>
</g>

</symbol>
<symbol id="like" viewBox="0 0 32 32">
<g id="like">
	<path fill-rule="evenodd" clip-rule="evenodd" fill="#333333" d="M29.164,10.472c-1.25-0.328-4.189-0.324-8.488-0.438
		c0.203-0.938,0.25-1.784,0.25-3.286C20.926,3.16,18.312,0,16,0c-1.633,0-2.979,1.335-3,2.977c-0.022,2.014-0.645,5.492-4,7.256
		c-0.246,0.13-0.95,0.477-1.053,0.522L8,10.8C7.475,10.347,6.747,10,6,10H3c-1.654,0-3,1.346-3,3v16c0,1.654,1.346,3,3,3h3
		c1.19,0,2.186-0.719,2.668-1.727c0.012,0.004,0.033,0.01,0.047,0.012c0.066,0.018,0.144,0.037,0.239,0.062
		C8.972,30.352,8.981,30.354,9,30.359c0.576,0.143,1.685,0.408,4.055,0.953C13.563,31.428,16.247,32,19.027,32h5.467
		c1.666,0,2.867-0.641,3.582-1.928c0.01-0.02,0.24-0.469,0.428-1.076c0.141-0.457,0.193-1.104,0.023-1.76
		c1.074-0.738,1.42-1.854,1.645-2.58c0.377-1.191,0.264-2.086,0.002-2.727c0.604-0.57,1.119-1.439,1.336-2.766
		c0.135-0.822-0.01-1.668-0.389-2.372c0.566-0.636,0.824-1.436,0.854-2.176l0.012-0.209C31.994,14.275,32,14.194,32,13.906
		C32,12.643,31.125,11.032,29.164,10.472z M7,29c0,0.553-0.447,1-1,1H3c-0.553,0-1-0.447-1-1V13c0-0.553,0.447-1,1-1h3
		c0.553,0,1,0.447,1,1V29z M29.977,14.535C29.957,15.029,29.75,16,28,16c-1.5,0-2,0-2,0c-0.277,0-0.5,0.224-0.5,0.5S25.723,17,26,17
		c0,0,0.438,0,1.938,0s1.697,1.244,1.6,1.844C29.414,19.59,29.064,21,27.375,21C25.688,21,25,21,25,21c-0.277,0-0.5,0.223-0.5,0.5
		c0,0.275,0.223,0.5,0.5,0.5c0,0,1.188,0,1.969,0c1.688,0,1.539,1.287,1.297,2.055C27.947,25.064,27.752,26,25.625,26
		c-0.719,0-1.631,0-1.631,0c-0.277,0-0.5,0.223-0.5,0.5c0,0.275,0.223,0.5,0.5,0.5c0,0,0.693,0,1.568,0
		c1.094,0,1.145,1.035,1.031,1.406c-0.125,0.406-0.273,0.707-0.279,0.721C26.012,29.672,25.525,30,24.494,30h-5.467
		c-2.746,0-5.47-0.623-5.54-0.639c-4.154-0.957-4.373-1.031-4.634-1.105c0,0-0.846-0.143-0.846-0.881L8,13.563
		c0-0.469,0.299-0.893,0.794-1.042c0.062-0.024,0.146-0.05,0.206-0.075c4.568-1.892,5.959-6.04,6-9.446c0.006-0.479,0.375-1,1-1
		c1.057,0,2.926,2.122,2.926,4.748C18.926,9.119,18.83,9.529,18,12c10,0,9.93,0.144,10.812,0.375C29.906,12.688,30,13.594,30,13.906
		C30,14.249,29.99,14.199,29.977,14.535z"/>
	<path fill-rule="evenodd" clip-rule="evenodd" fill="#333333" d="M4.5,26C3.672,26,3,26.672,3,27.5S3.672,29,4.5,29
		S6,28.328,6,27.5S5.328,26,4.5,26z M4.5,28C4.225,28,4,27.775,4,27.5S4.225,27,4.5,27S5,27.225,5,27.5S4.775,28,4.5,28z"/>
</g>

</symbol>
<symbol id="location" viewBox="0 0 32 32">
<g id="location">
	<path fill-rule="evenodd" clip-rule="evenodd" fill="#333333" d="M16.002,17.746c3.309,0,6-2.692,6-6s-2.691-6-6-6
		c-3.309,0-6,2.691-6,6S12.693,17.746,16.002,17.746z M16.002,6.746c2.758,0,5,2.242,5,5s-2.242,5-5,5c-2.758,0-5-2.242-5-5
		S13.244,6.746,16.002,6.746z"/>
	<path fill-rule="evenodd" clip-rule="evenodd" fill="#333333" d="M16,0C9.382,0,4,5.316,4,12.001c0,7,6.001,14.161,10.376,19.194
		C14.392,31.215,15.094,32,15.962,32c0.002,0,0.073,0,0.077,0c0.867,0,1.57-0.785,1.586-0.805
		c4.377-5.033,10.377-12.193,10.377-19.194C28.002,5.316,22.619,0,16,0z M16.117,29.883c-0.021,0.02-0.082,0.064-0.135,0.098
		c-0.01-0.027-0.084-0.086-0.129-0.133C12.188,25.631,6,18.514,6,12.001C6,6.487,10.487,2,16,2c5.516,0,10.002,4.487,10.002,10.002
		C26.002,18.514,19.814,25.631,16.117,29.883z"/>
</g>

</symbol>
<symbol id="lock" viewBox="0 0 32 32">
<g id="lock">
	<path fill="#333333" d="M25,13V9c0-4.971-4.029-9-9-9c-4.971,0-9,4.029-9,9v4c-1.657,0-3,1.343-3,3v3v1v2v1c0,4.971,4.029,9,9,9h6
		c4.971,0,9-4.029,9-9v-1v-2v-1v-3C28,14.342,26.656,13,25,13z M9,9c0-3.866,3.134-7,7-7c3.866,0,7,3.134,7,7v4h-2V9.002
		c0-2.762-2.238-5-5-5c-2.762,0-5,2.238-5,5V13H9V9z M20,9v0.003V13h-8V9.002V9c0-2.209,1.791-4,4-4C18.209,5,20,6.791,20,9z M26,19
		v1v2v1c0,3.859-3.141,7-7,7h-6c-3.859,0-7-3.141-7-7v-1v-2v-1v-3c0-0.552,0.448-1,1-1c0.667,0,1.333,0,2,0h14c0.666,0,1.332,0,2,0
		c0.551,0,1,0.448,1,1V19z"/>
	<path fill="#333333" d="M16,19c-1.104,0-2,0.895-2,2c0,0.607,0.333,1.76,0.667,2.672c0.272,0.742,0.614,1.326,1.333,1.326
		c0.782,0,1.061-0.578,1.334-1.316C17.672,22.768,18,21.609,18,21C18,19.895,17.104,19,16,19z"/>
</g>

</symbol>
<symbol id="mail" viewBox="0 0 32 32">
<path id="mail" fill="#333333" d="M28,5H4C1.791,5,0,6.792,0,9v13c0,2.209,1.791,4,4,4h24c2.209,0,4-1.791,4-4V9
	C32,6.792,30.209,5,28,5z M2,10.25l6.999,5.25L2,20.75V10.25z M30,22c0,1.104-0.898,2-2,2H4c-1.103,0-2-0.896-2-2l7.832-5.875
	l4.368,3.277c0.533,0.398,1.166,0.6,1.8,0.6c0.633,0,1.266-0.201,1.799-0.6l4.369-3.277L30,22L30,22z M30,20.75l-7-5.25l7-5.25
	V20.75z M17.199,18.602c-0.349,0.262-0.763,0.4-1.199,0.4c-0.436,0-0.851-0.139-1.2-0.4L10.665,15.5l-0.833-0.625L2,9.001V9
	c0-1.103,0.897-2,2-2h24c1.102,0,2,0.897,2,2L17.199,18.602z"/>

</symbol>
<symbol id="megaphone" viewBox="0 0 32 32">
<path id="megaphone" fill="#333333" d="M25,0c-2.053,0-3.666,1.41-4.824,3.586l-0.021-0.012C18.473,6.867,15.969,9,13.226,9h-0.663
	H8.156H4c-2.243,0-4,2.197-4,5c0,2.805,1.757,5,4,5c1.103,0.004,1.995,0.896,1.995,2v9c0,1.105,0.896,2,2,2h4c1.104,0,2-0.895,2-2
	v-1c0-1-1-1.447-1-2v-7c0-0.023,0.016-0.039,0.018-0.062c0.01-0.143,0.049-0.275,0.112-0.395c0.018-0.033,0.037-0.059,0.059-0.088
	c0.08-0.119,0.181-0.217,0.304-0.293c0.006-0.004,0.008-0.01,0.014-0.014c0.004,0,0.007-0.004,0.011-0.004
	c0.08-0.045,0.176-0.055,0.266-0.08c2.524,0.268,4.809,2.305,6.377,5.373l0.025-0.012C21.34,26.594,22.949,28,25,28
	c4.596,0,7-7.043,7-14S29.596,0,25,0z M20,14c0-1.037,0.061-2.039,0.164-3H23c1.104,0,2,1.344,2,3c0,1.658-0.896,3-2,3h-2.836
	C20.061,16.039,20,15.039,20,14z M2,14c0-1.656,0.896-3,2-3h4.156H9h2.014C10.394,11.729,10,12.787,10,14
	c0,1.215,0.394,2.273,1.014,3H9H4C2.896,17,2,15.658,2,14z M11.995,30h-4v-9c0-0.729-0.195-1.41-0.537-2h0.698v0.012h3.008
	c-0.107,0.311-0.169,0.641-0.169,0.988v7c0,0.963,0.538,1.604,0.859,1.986c0.044,0.053,0.096,0.107,0.141,0.166V30z M13.226,17.012
	H13V17c-1.104,0-2-1.342-2-3c0-1.656,0.896-3,2-3h0.226c1.886,0,3.652-0.742,5.206-2.018C18.146,10.592,18,12.297,18,14
	c0,1.709,0.146,3.42,0.434,5.031C16.879,17.754,15.112,17.012,13.226,17.012z M25,26c-2.018,0-3.75-2.871-4.541-7H23
	c2.242,0,4-2.195,4-5c0-2.803-1.758-5-4-5h-2.541C21.25,4.873,22.982,2,25,2c2.762,0,5,5.373,5,12S27.762,26,25,26z"/>

</symbol>
<symbol id="music" viewBox="0 0 32 32">
<path id="music" fill="#333333" d="M31.286,0.469C30.923,0.164,30.468,0,30.001,0c-0.115,0-0.232,0.01-0.348,0.031l-17.002,3
	C11.695,3.199,10.999,4.029,10.999,5v2v1v14.17C9.984,21.434,8.667,21,7.205,21c-0.85,0-1.7,0.141-2.529,0.416
	C2.778,22.049,1.256,23.318,0.5,24.9c-0.584,1.223-0.659,2.553-0.214,3.746C1.047,30.684,3.209,32,5.794,32
	c0.85,0,1.7-0.139,2.528-0.416c1.897-0.631,3.419-1.9,4.175-3.48c0.325-0.682,0.477-1.396,0.483-2.104h0.018V10
	c0.115,0,0.232-0.01,0.348-0.029l16.655-2.939V19.17C28.985,18.434,27.669,18,26.206,18c-0.85,0-1.701,0.141-2.529,0.416
	c-1.898,0.633-3.42,1.902-4.174,3.484c-0.584,1.223-0.66,2.553-0.215,3.746C20.05,27.684,22.21,29,24.796,29
	c0.85,0,1.701-0.139,2.529-0.416c1.896-0.631,3.418-1.9,4.174-3.48c0.326-0.682,0.477-1.396,0.484-2.104h0.018V5V4V2
	C32.001,1.41,31.739,0.848,31.286,0.469z M7.688,29.688c-2.396,0.799-4.873,0.018-5.529-1.74c-0.658-1.76,0.751-3.834,3.146-4.633
	c2.396-0.799,4.873-0.02,5.529,1.74C11.493,26.814,10.084,28.889,7.688,29.688z M26.653,26.688c-2.398,0.799-4.875,0.018-5.531-1.74
	c-0.658-1.76,0.752-3.834,3.146-4.633c2.398-0.799,4.875-0.02,5.531,1.74C30.458,23.814,29.05,25.889,26.653,26.688z M29.96,5
	L12.958,8V7V5L29.96,2v2V5z"/>

</symbol>
<symbol id="news" viewBox="0 0 32 32">
<g id="news">
	<path fill-rule="evenodd" clip-rule="evenodd" fill="#333333" d="M29,0H7C5.343,0,4,1.342,4,3v2H3C1.343,5,0,6.342,0,8v20
		c0,2.209,1.791,4,4,4h24c2.209,0,4-1.791,4-4V3C32,1.342,30.656,0,29,0z M30,28c0,1.102-0.898,2-2,2H4c-1.103,0-2-0.898-2-2V8
		c0-0.552,0.448-1,1-1h1v20c0,0.553,0.447,1,1,1s1-0.447,1-1V3c0-0.552,0.448-1,1-1h22c0.551,0,1,0.448,1,1V28z"/>
	<path fill-rule="evenodd" clip-rule="evenodd" fill="#333333" d="M19.498,13.005h8c0.277,0,0.5-0.224,0.5-0.5s-0.223-0.5-0.5-0.5
		h-8c-0.275,0-0.5,0.224-0.5,0.5S19.223,13.005,19.498,13.005z"/>
	<path fill-rule="evenodd" clip-rule="evenodd" fill="#333333" d="M19.498,10.005h8c0.277,0,0.5-0.224,0.5-0.5s-0.223-0.5-0.5-0.5
		h-8c-0.275,0-0.5,0.224-0.5,0.5S19.223,10.005,19.498,10.005z"/>
	<path fill-rule="evenodd" clip-rule="evenodd" fill="#333333" d="M19.498,7.005h8c0.277,0,0.5-0.224,0.5-0.5s-0.223-0.5-0.5-0.5h-8
		c-0.275,0-0.5,0.224-0.5,0.5S19.223,7.005,19.498,7.005z"/>
	<path fill-rule="evenodd" clip-rule="evenodd" fill="#333333" d="M16.5,27.004h-8c-0.276,0-0.5,0.225-0.5,0.5
		c0,0.277,0.224,0.5,0.5,0.5h8c0.275,0,0.5-0.223,0.5-0.5C17,27.229,16.776,27.004,16.5,27.004z"/>
	<path fill-rule="evenodd" clip-rule="evenodd" fill="#333333" d="M16.5,24.004h-8c-0.276,0-0.5,0.225-0.5,0.5
		c0,0.277,0.224,0.5,0.5,0.5h8c0.275,0,0.5-0.223,0.5-0.5C17,24.229,16.776,24.004,16.5,24.004z"/>
	<path fill-rule="evenodd" clip-rule="evenodd" fill="#333333" d="M16.5,21.004h-8c-0.276,0-0.5,0.225-0.5,0.5
		c0,0.277,0.224,0.5,0.5,0.5h8c0.275,0,0.5-0.223,0.5-0.5C17,21.229,16.776,21.004,16.5,21.004z"/>
	<path fill-rule="evenodd" clip-rule="evenodd" fill="#333333" d="M27.5,27.004h-8c-0.277,0-0.5,0.225-0.5,0.5
		c0,0.277,0.223,0.5,0.5,0.5h8c0.275,0,0.5-0.223,0.5-0.5C28,27.229,27.775,27.004,27.5,27.004z"/>
	<path fill-rule="evenodd" clip-rule="evenodd" fill="#333333" d="M27.5,24.004h-8c-0.277,0-0.5,0.225-0.5,0.5
		c0,0.277,0.223,0.5,0.5,0.5h8c0.275,0,0.5-0.223,0.5-0.5C28,24.229,27.775,24.004,27.5,24.004z"/>
	<path fill-rule="evenodd" clip-rule="evenodd" fill="#333333" d="M27.5,21.004h-8c-0.277,0-0.5,0.225-0.5,0.5
		c0,0.277,0.223,0.5,0.5,0.5h8c0.275,0,0.5-0.223,0.5-0.5C28,21.229,27.775,21.004,27.5,21.004z"/>
	<path fill-rule="evenodd" clip-rule="evenodd" fill="#333333" d="M27.5,15.004h-19c-0.276,0-0.5,0.224-0.5,0.5s0.224,0.5,0.5,0.5
		h19c0.275,0,0.5-0.224,0.5-0.5S27.775,15.004,27.5,15.004z"/>
	<path fill-rule="evenodd" clip-rule="evenodd" fill="#333333" d="M27.5,18.004h-19c-0.276,0-0.5,0.225-0.5,0.5
		c0,0.277,0.224,0.5,0.5,0.5h19c0.275,0,0.5-0.223,0.5-0.5C28,18.229,27.775,18.004,27.5,18.004z"/>
	<path fill-rule="evenodd" clip-rule="evenodd" fill="#333333" d="M9,13h7c0.553,0,1-0.447,1-1V5.004c0-0.553-0.447-1-1-1H9
		c-0.553,0-1,0.447-1,1V12C8,12.552,8.447,13,9,13z M10,6h5v5h-5V6z"/>
</g>

</symbol>
<symbol id="note" viewBox="0 0 32 32">
<g id="note">
	<path fill-rule="evenodd" clip-rule="evenodd" fill="#333333" d="M31.414,7.585l-6-6C25.039,1.21,24.529,1,24,1H3
		C1.346,1,0,2.345,0,4v24c0,1.654,1.346,3,3,3h26c1.654,0,3-1.346,3-3V9C32,8.469,31.789,7.96,31.414,7.585z M30,28
		c0,0.553-0.447,1-1,1H3c-0.553,0-1-0.447-1-1V4c0-0.553,0.447-1,1-1h20v4h-0.002c0,1.657,1.344,3,3,3h1H30V28z M26.998,9h-1
		c-1.102,0-2-0.897-2-2H24V3l6,6H26.998z"/>
	<path fill-rule="evenodd" clip-rule="evenodd" fill="#333333" d="M15.5,8h5C20.775,8,21,7.776,21,7.5S20.775,7,20.5,7h-5
		C15.224,7,15,7.223,15,7.5S15.224,8,15.5,8z"/>
	<path fill-rule="evenodd" clip-rule="evenodd" fill="#333333" d="M15.5,11h5c0.275,0,0.5-0.224,0.5-0.5S20.775,10,20.5,10h-5
		c-0.276,0-0.5,0.224-0.5,0.5S15.224,11,15.5,11z"/>
	<path fill-rule="evenodd" clip-rule="evenodd" fill="#333333" d="M15,13.5c0,0.276,0.224,0.5,0.5,0.5h12c0.275,0,0.5-0.224,0.5-0.5
		S27.775,13,27.5,13h-12C15.224,13,15,13.223,15,13.5z"/>
	<path fill-rule="evenodd" clip-rule="evenodd" fill="#333333" d="M27.5,19h-23C4.224,19,4,19.223,4,19.5C4,19.775,4.224,20,4.5,20
		h23c0.275,0,0.5-0.225,0.5-0.5C28,19.223,27.775,19,27.5,19z"/>
	<path fill-rule="evenodd" clip-rule="evenodd" fill="#333333" d="M27.5,22h-23C4.224,22,4,22.223,4,22.5C4,22.775,4.224,23,4.5,23
		h23c0.275,0,0.5-0.225,0.5-0.5C28,22.223,27.775,22,27.5,22z"/>
	<path fill-rule="evenodd" clip-rule="evenodd" fill="#333333" d="M27.5,25h-23C4.224,25,4,25.223,4,25.5C4,25.775,4.224,26,4.5,26
		h23c0.275,0,0.5-0.225,0.5-0.5C28,25.223,27.775,25,27.5,25z"/>
	<path fill-rule="evenodd" clip-rule="evenodd" fill="#333333" d="M27.5,16h-23C4.224,16,4,16.223,4,16.5S4.224,17,4.5,17h23
		c0.275,0,0.5-0.224,0.5-0.5S27.775,16,27.5,16z"/>
	<path fill-rule="evenodd" clip-rule="evenodd" fill="#333333" d="M5,14h7c0.553,0,1-0.447,1-1V7c0-0.553-0.447-1-1-1H5
		C4.447,6,4,6.447,4,7v6C4,13.552,4.447,14,5,14z M6,8h5v4H6V8z"/>
</g>

</symbol>
<symbol id="paperplane" viewBox="0 0 32 32">
<path id="paperplane" fill="#333333" d="M31.543,0.16C31.377,0.053,31.188,0,31,0c-0.193,0-0.387,0.055-0.555,0.168l-30,20
	c-0.309,0.205-0.479,0.566-0.439,0.936c0.038,0.369,0.278,0.688,0.623,0.824l7.824,3.131l3.679,6.438
	c0.176,0.309,0.503,0.5,0.857,0.504c0.004,0,0.007,0,0.011,0c0.351,0,0.677-0.186,0.857-0.486l2.077-3.463l9.695,3.877
	C25.748,31.977,25.873,32,26,32c0.17,0,0.338-0.043,0.49-0.129c0.264-0.148,0.445-0.408,0.496-0.707l5-30
	C32.051,0.771,31.877,0.377,31.543,0.16z M3.136,20.777L26.311,5.326L9.461,23.363c-0.089-0.053-0.168-0.123-0.266-0.162
	L3.136,20.777z M10.189,24.066c-0.002-0.004-0.005-0.006-0.007-0.01L29.125,3.781L12.976,28.943L10.189,24.066z M25.217,29.609
	l-8.541-3.416c-0.203-0.08-0.414-0.107-0.623-0.119L29.205,5.686L25.217,29.609z"/>

</symbol>
<symbol id="params" viewBox="0 0 32 32">
<g id="settings_2_">
	<path fill-rule="evenodd" clip-rule="evenodd" fill="#333333" d="M8,6.021V3c0-1.654-1.346-3-3-3S2,1.346,2,3v3.021
		C0.792,6.936,0,8.369,0,10s0.792,3.064,2,3.977V29c0,1.654,1.346,3,3,3s3-1.346,3-3V13.977c1.208-0.912,2-2.346,2-3.977
		S9.208,6.936,8,6.021z M4,3c0-0.553,0.447-1,1-1s1,0.447,1,1v2.1C5.677,5.035,5.343,5,5,5S4.323,5.035,4,5.1V3z M6,29
		c0,0.553-0.447,1-1,1s-1-0.447-1-1V14.898C4.323,14.965,4.657,15,5,15s0.677-0.035,1-0.102V29z M7.865,10.84
		c-0.016,0.053-0.03,0.105-0.049,0.158c-0.095,0.264-0.217,0.514-0.378,0.736c-0.004,0.006-0.01,0.01-0.014,0.016
		c-0.174,0.238-0.381,0.449-0.616,0.627c-0.004,0.004-0.007,0.006-0.01,0.008c-0.241,0.182-0.51,0.328-0.799,0.43
		C5.686,12.928,5.353,13,5,13s-0.686-0.072-1-0.186c-0.289-0.102-0.558-0.248-0.799-0.43c-0.003-0.002-0.006-0.004-0.01-0.008
		c-0.235-0.178-0.442-0.389-0.616-0.627c-0.004-0.006-0.01-0.01-0.014-0.016c-0.161-0.223-0.283-0.473-0.378-0.736
		c-0.019-0.053-0.033-0.105-0.049-0.158C2.055,10.572,2,10.293,2,10c0-0.295,0.055-0.574,0.135-0.842
		c0.016-0.053,0.03-0.105,0.049-0.156C2.278,8.738,2.4,8.488,2.562,8.264c0.004-0.006,0.01-0.01,0.014-0.016
		c0.174-0.236,0.381-0.449,0.616-0.627c0.004-0.002,0.007-0.006,0.01-0.008C3.442,7.434,3.711,7.287,4,7.184
		C4.314,7.072,4.647,7,5,7s0.686,0.072,1,0.184c0.289,0.104,0.558,0.25,0.799,0.43c0.003,0.002,0.006,0.006,0.01,0.008
		c0.235,0.178,0.442,0.391,0.616,0.627c0.004,0.006,0.01,0.01,0.014,0.016C7.6,8.488,7.722,8.738,7.816,9.002
		C7.835,9.053,7.85,9.105,7.865,9.158C7.945,9.426,8,9.705,8,10C8,10.293,7.945,10.572,7.865,10.84z"/>
	<path fill-rule="evenodd" clip-rule="evenodd" fill="#333333" d="M30,6.021V3c0-1.654-1.346-3-3-3s-3,1.346-3,3v3.021
		C22.791,6.936,22,8.369,22,10s0.791,3.064,2,3.977V29c0,1.654,1.346,3,3,3s3-1.346,3-3V13.977c1.207-0.912,2-2.346,2-3.977
		S31.207,6.936,30,6.021z M26,3c0-0.553,0.447-1,1-1s1,0.447,1,1v2.1C27.676,5.035,27.342,5,27,5c-0.344,0-0.678,0.035-1,0.1V3z
		 M28,29c0,0.553-0.447,1-1,1s-1-0.447-1-1V14.898C26.322,14.965,26.656,15,27,15c0.342,0,0.676-0.035,1-0.102V29z M29.865,10.84
		c-0.016,0.053-0.031,0.105-0.049,0.158c-0.096,0.264-0.217,0.514-0.379,0.736c-0.004,0.006-0.01,0.01-0.014,0.016
		c-0.174,0.238-0.381,0.449-0.615,0.627c-0.004,0.004-0.008,0.006-0.01,0.008c-0.242,0.182-0.51,0.328-0.799,0.43
		C27.686,12.928,27.352,13,27,13c-0.354,0-0.686-0.072-1-0.186c-0.289-0.102-0.559-0.248-0.799-0.43
		c-0.004-0.002-0.006-0.004-0.01-0.008c-0.236-0.178-0.443-0.389-0.617-0.627c-0.004-0.006-0.01-0.01-0.014-0.016
		c-0.16-0.223-0.283-0.473-0.377-0.736c-0.02-0.053-0.033-0.105-0.049-0.158C24.055,10.572,24,10.293,24,10
		c0-0.295,0.055-0.574,0.135-0.842c0.016-0.053,0.029-0.105,0.049-0.156c0.094-0.264,0.217-0.514,0.377-0.738
		c0.004-0.006,0.01-0.01,0.014-0.016c0.174-0.236,0.381-0.449,0.617-0.627c0.004-0.002,0.006-0.006,0.01-0.008
		c0.24-0.18,0.51-0.326,0.799-0.43C26.314,7.072,26.646,7,27,7c0.352,0,0.686,0.072,1,0.184c0.289,0.104,0.557,0.25,0.799,0.43
		c0.002,0.002,0.006,0.006,0.01,0.008c0.234,0.178,0.441,0.391,0.615,0.627c0.004,0.006,0.01,0.01,0.014,0.016
		c0.162,0.225,0.283,0.475,0.379,0.738c0.018,0.051,0.033,0.104,0.049,0.156C29.945,9.426,30,9.705,30,10
		C30,10.293,29.945,10.572,29.865,10.84z"/>
	<path fill-rule="evenodd" clip-rule="evenodd" fill="#333333" d="M19,18.021V3c0-1.654-1.346-3-3-3s-3,1.346-3,3v15.021
		c-1.208,0.914-2,2.348-2,3.979s0.792,3.064,2,3.977V29c0,1.654,1.346,3,3,3s3-1.346,3-3v-3.023c1.207-0.912,2-2.346,2-3.977
		S20.207,18.936,19,18.021z M15,3c0-0.553,0.447-1,1-1c0.553,0,1,0.447,1,1v14.1c-0.324-0.064-0.658-0.1-1-0.1
		c-0.343,0-0.677,0.035-1,0.1V3z M17,29c0,0.553-0.447,1-1,1c-0.553,0-1-0.447-1-1v-2.102C15.323,26.965,15.657,27,16,27
		c0.342,0,0.676-0.035,1-0.102V29z M18.865,22.84c-0.016,0.053-0.031,0.105-0.049,0.158c-0.096,0.264-0.217,0.514-0.379,0.736
		c-0.004,0.006-0.01,0.01-0.014,0.016c-0.174,0.238-0.381,0.449-0.615,0.627c-0.004,0.004-0.008,0.006-0.01,0.008
		c-0.242,0.182-0.51,0.328-0.799,0.43C16.686,24.928,16.352,25,16,25c-0.353,0-0.686-0.072-1-0.186
		c-0.289-0.102-0.558-0.248-0.799-0.43c-0.003-0.002-0.006-0.004-0.01-0.008c-0.235-0.178-0.442-0.389-0.616-0.627
		c-0.004-0.006-0.01-0.01-0.014-0.016c-0.161-0.223-0.283-0.473-0.378-0.736c-0.019-0.053-0.033-0.105-0.049-0.158
		C13.055,22.572,13,22.293,13,22c0-0.295,0.055-0.574,0.135-0.842c0.016-0.053,0.03-0.105,0.049-0.156
		c0.095-0.264,0.217-0.514,0.378-0.738c0.004-0.006,0.01-0.01,0.014-0.016c0.174-0.236,0.381-0.449,0.616-0.627
		c0.004-0.002,0.007-0.006,0.01-0.008c0.241-0.18,0.51-0.326,0.799-0.43C15.314,19.072,15.647,19,16,19c0.352,0,0.686,0.072,1,0.184
		c0.289,0.104,0.557,0.25,0.799,0.43c0.002,0.002,0.006,0.006,0.01,0.008c0.234,0.178,0.441,0.391,0.615,0.627
		c0.004,0.006,0.01,0.01,0.014,0.016c0.162,0.225,0.283,0.475,0.379,0.738c0.018,0.051,0.033,0.104,0.049,0.156
		C18.945,21.426,19,21.705,19,22C19,22.293,18.945,22.572,18.865,22.84z"/>
</g>

</symbol>
<symbol id="pen" viewBox="0 0 32 32">
<path id="pen" fill="#333333" d="M29.395,2.58C27.75,0.937,25.584,0,23.449,0c-1.801,0-3.459,0.668-4.67,1.877l-4.867,4.904
	c-0.015,0.014-0.032,0.023-0.047,0.038c-0.008,0.008-0.013,0.019-0.021,0.026l0.002,0.002L3.517,17.256
	c-0.476,0.473-0.821,1.062-1.013,1.705l-2.349,8.508C0.153,27.492,0,28.16,0,28.5C0,30.432,1.569,32,3.504,32
	c0.385,0,1.13-0.184,1.157-0.188l8.478-2.229c0.644-0.191,1.229-0.539,1.705-1.016l15.263-15.383
	C32.883,10.406,32.57,5.75,29.395,2.58z M16.014,23.795c-0.082-0.902-0.337-1.787-0.719-2.627l9.455-9.454
	c0.578,1.826,0.281,3.736-0.986,5.004c-0.008,0.008-0.018,0.013-0.025,0.021l0.014,0.013l-7.728,7.79
	C16.025,24.293,16.037,24.049,16.014,23.795z M14.793,20.256c-0.373-0.613-0.797-1.205-1.322-1.729
	c-0.611-0.611-1.312-1.09-2.044-1.492l9.532-9.532c0.748,0.332,1.465,0.805,2.098,1.438c0.541,0.539,0.959,1.143,1.281,1.771
	L14.793,20.256z M10.486,16.562c-0.926-0.373-1.896-0.586-2.868-0.599l7.703-7.762c1.179-1.15,2.896-1.481,4.587-1.062
	L10.486,16.562z M4.167,29.873C4.058,29.898,3.719,29.984,3.489,30C2.667,29.99,2,29.322,2,28.5
	c0.012-0.168,0.079-0.457,0.102-0.562l1.053-3.814c1.143-0.031,2.373,0.414,3.34,1.383c0.982,0.98,1.444,2.234,1.394,3.391
	L4.167,29.873z M8.874,28.637c-0.024-1.342-0.57-2.738-1.672-3.838C6.16,23.756,4.796,23.154,3.436,23.1l0.996-3.607
	c0.072-0.24,0.215-0.477,0.391-0.684c2.006-1.436,5.091-1.012,7.234,1.133c2.267,2.266,2.617,5.586,0.871,7.568
	c-0.116,0.061-0.233,0.119-0.359,0.156L8.874,28.637z M28.691,11.772l-1.684,1.697c0-0.226,0.027-0.443,0.006-0.674
	c-0.176-1.935-1.078-3.806-2.543-5.269c-1.629-1.63-3.789-2.565-5.928-2.571l1.656-1.67C21.027,2.458,22.184,2,23.449,2
	c1.609,0,3.262,0.728,4.533,1.995c1.193,1.191,1.904,2.671,2.006,4.168C30.082,9.56,29.621,10.841,28.691,11.772z"/>

</symbol>
<symbol id="phone" viewBox="0 0 32 32">
<g id="iphone">
	<path fill="#333333" d="M24,0L8,0C6.342,0,5,1.343,5,3v26c0,1.658,1.343,3,3,3h16c1.656,0,3-1.344,3-3V3C27,1.342,25.656,0,24,0z
		 M25,29c0,0.551-0.449,1-1,1H8c-0.552,0-1-0.447-1-1v-2.004h18V29z M25,25.996H7V6L25,6V25.996z M25,5L7,5V3c0-0.552,0.448-1,1-1
		L24,2c0.551,0,1,0.448,1,1V5z"/>
	<path fill="#333333" d="M18,3.5C18,3.776,17.775,4,17.5,4h-3C14.223,4,14,3.776,14,3.5l0,0C14,3.223,14.223,3,14.5,3h3
		C17.775,3,18,3.223,18,3.5L18,3.5z"/>
	<path fill="#333333" d="M17,28.496c0,0.275-0.225,0.5-0.5,0.5h-1c-0.276,0-0.5-0.225-0.5-0.5l0,0c0-0.277,0.224-0.5,0.5-0.5h1
		C16.775,27.996,17,28.219,17,28.496L17,28.496z"/>
</g>

</symbol>
<symbol id="photo" viewBox="0 0 32 32">
<g id="photo_1_">
	<path fill="#333333" d="M27,0H5C2.791,0,1,1.791,1,4v24c0,2.209,1.791,4,4,4h22c2.209,0,4-1.791,4-4V4C31,1.791,29.209,0,27,0z
		 M29,28c0,1.102-0.898,2-2,2H5c-1.103,0-2-0.898-2-2V4c0-1.103,0.897-2,2-2h22c1.102,0,2,0.897,2,2V28z"/>
	<path fill="#333333" d="M26,4H6C5.447,4,5,4.447,5,5v18c0,0.553,0.447,1,1,1h20c0.553,0,1-0.447,1-1V5C27,4.447,26.553,4,26,4z
		 M26,5v13.869l-3.25-3.53C22.559,15.123,22.287,15,22,15s-0.561,0.123-0.75,0.339l-2.604,2.95l-7.896-8.95
		C10.56,9.123,10.287,9,10,9S9.44,9.123,9.25,9.339L6,13.087V5H26z M6,14.6l4-4.6l8.066,9.143l0.58,0.658L21.408,23H6V14.6z
		 M22.74,23l-3.428-3.955L22,16l4,4.379V23H22.74z"/>
	<path fill="#333333" d="M20,13c1.656,0,3-1.343,3-3s-1.344-3-3-3c-1.658,0-3,1.343-3,3S18.342,13,20,13z M20,8c1.102,0,2,0.897,2,2
		s-0.898,2-2,2c-1.104,0-2-0.897-2-2S18.896,8,20,8z"/>
</g>

</symbol>
<symbol id="search" viewBox="0 0 32 32">
<g id="search_1_">
	<path fill="#333333" d="M20,0.005c-6.627,0-12,5.373-12,12c0,2.026,0.507,3.933,1.395,5.608l-8.344,8.342l0.007,0.006
		C0.406,26.602,0,27.49,0,28.477c0,1.949,1.58,3.529,3.529,3.529c0.985,0,1.874-0.406,2.515-1.059l-0.002-0.002l8.341-8.34
		c1.676,0.891,3.586,1.4,5.617,1.4c6.627,0,12-5.373,12-12C32,5.378,26.627,0.005,20,0.005z M4.795,29.697
		c-0.322,0.334-0.768,0.543-1.266,0.543c-0.975,0-1.765-0.789-1.765-1.764c0-0.498,0.21-0.943,0.543-1.266l-0.009-0.008l8.066-8.066
		c0.705,0.951,1.545,1.791,2.494,2.498L4.795,29.697z M20,22.006c-5.522,0-10-4.479-10-10c0-5.522,4.478-10,10-10
		c5.521,0,10,4.478,10,10C30,17.527,25.521,22.006,20,22.006z"/>
	<path fill="#333333" d="M20,5.005c-3.867,0-7,3.134-7,7c0,0.276,0.224,0.5,0.5,0.5s0.5-0.224,0.5-0.5c0-3.313,2.686-6,6-6
		c0.275,0,0.5-0.224,0.5-0.5S20.275,5.005,20,5.005z"/>
</g>

</symbol>
<symbol id="settings" viewBox="0 0 32 32">
<g id="settings">
	<path fill="#333333" d="M30.391,12.68l-3.064-0.614c-0.154-0.443-0.336-0.873-0.537-1.289l1.736-2.604
		c0.529-0.793,0.424-1.85-0.25-2.523l-1.924-1.924c-0.387-0.387-0.898-0.586-1.416-0.586c-0.383,0-0.77,0.11-1.107,0.336
		l-2.604,1.735c-0.418-0.202-0.848-0.382-1.291-0.536L19.32,1.61c-0.186-0.936-1.008-1.608-1.961-1.608h-2.72
		c-0.953,0-1.774,0.673-1.961,1.608l-0.614,3.065c-0.443,0.154-0.873,0.335-1.289,0.536L8.172,3.476
		C7.833,3.25,7.447,3.14,7.063,3.14c-0.517,0-1.028,0.199-1.415,0.586L3.725,5.65c-0.674,0.674-0.779,1.73-0.25,2.523l1.735,2.604
		c-0.202,0.417-0.382,0.847-0.536,1.29L1.608,12.68C0.673,12.867,0,13.688,0,14.641v2.72c0,0.953,0.673,1.775,1.608,1.961
		l3.065,0.615c0.154,0.443,0.335,0.873,0.536,1.289L3.475,23.83c-0.529,0.793-0.424,1.85,0.25,2.523l1.924,1.924
		c0.387,0.387,0.898,0.586,1.415,0.586c0.384,0,0.771-0.111,1.108-0.336l2.604-1.736c0.417,0.203,0.847,0.383,1.29,0.537
		l0.613,3.064c0.187,0.936,1.008,1.609,1.961,1.609h2.72c0.953,0,1.775-0.674,1.961-1.609l0.615-3.064
		c0.443-0.154,0.873-0.336,1.289-0.537l2.604,1.736c0.338,0.225,0.725,0.336,1.107,0.336c0.518,0,1.029-0.199,1.416-0.586
		l1.924-1.924c0.674-0.674,0.779-1.73,0.25-2.523l-1.736-2.604c0.203-0.418,0.383-0.848,0.537-1.291l3.064-0.613
		C31.326,19.137,32,18.314,32,17.361v-2.72C32,13.688,31.326,12.867,30.391,12.68z M26.934,17.975
		c-0.695,0.139-1.264,0.635-1.496,1.305c-0.129,0.369-0.279,0.727-0.447,1.074c-0.311,0.639-0.258,1.393,0.135,1.982l1.736,2.604
		l-1.924,1.924l-2.604-1.736c-0.334-0.223-0.721-0.336-1.109-0.336c-0.297,0-0.596,0.066-0.871,0.199
		c-0.348,0.168-0.705,0.32-1.076,0.449c-0.668,0.232-1.164,0.801-1.303,1.496l-0.615,3.066h-2.72l-0.613-3.066
		c-0.139-0.695-0.635-1.264-1.304-1.496c-0.369-0.129-0.728-0.279-1.075-0.447c-0.276-0.135-0.574-0.201-0.872-0.201
		c-0.389,0-0.775,0.113-1.109,0.336l-2.604,1.736l-1.924-1.924l1.735-2.604c0.393-0.59,0.444-1.344,0.137-1.98
		c-0.168-0.348-0.319-0.705-0.448-1.076c-0.232-0.668-0.802-1.164-1.496-1.303l-3.065-0.615L2,14.641l3.066-0.613
		c0.694-0.139,1.264-0.635,1.496-1.304c0.129-0.369,0.278-0.728,0.447-1.075c0.31-0.638,0.258-1.392-0.136-1.981L5.139,7.064
		L7.062,5.14l2.604,1.735C10,7.098,10.387,7.211,10.775,7.211c0.297,0,0.595-0.066,0.871-0.199c0.347-0.168,0.705-0.319,1.075-0.448
		c0.669-0.232,1.165-0.802,1.304-1.496l0.614-3.065l2.72-0.001l0.613,3.066c0.139,0.694,0.635,1.264,1.305,1.496
		c0.369,0.129,0.727,0.278,1.074,0.447c0.277,0.134,0.574,0.2,0.873,0.2c0.389,0,0.775-0.113,1.109-0.336l2.604-1.735l1.924,1.924
		l-1.736,2.604c-0.393,0.59-0.443,1.343-0.137,1.98c0.168,0.347,0.32,0.705,0.449,1.075c0.232,0.669,0.801,1.165,1.496,1.304
		l3.064,0.614L30,17.361L26.934,17.975z"/>
	<path fill="#333333" d="M16,9.001c-3.865,0-7,3.135-7,7c0,3.866,3.135,7,7,7s7-3.135,7-7C23,12.136,19.865,9.001,16,9.001z
		 M16,22.127c-3.382,0-6.125-2.744-6.125-6.125c0-3.382,2.743-6.125,6.125-6.125c3.381,0,6.125,2.743,6.125,6.125
		C22.125,19.383,19.381,22.127,16,22.127z"/>
	<path fill="#333333" d="M16,12.001c-2.21,0-4,1.79-4,4c0,2.209,1.79,4,4,4c2.209,0,4-1.791,4-4C20,13.792,18.209,12.001,16,12.001z
		 M16,19.002c-1.656,0-3-1.344-3-3c0-1.656,1.344-3,3-3s3,1.344,3,3C19,17.658,17.656,19.002,16,19.002z"/>
</g>

</symbol>
<symbol id="shop" viewBox="0 0 32 32">
<path id="shop_1_" fill="#333332" d="M31.4,11.2l-3-3.998c-0.117-0.157-0.256-0.293-0.4-0.423V2c0-1.104-0.896-2-2-2H6
	C4.895,0,4,0.896,4,2v4.78C3.856,6.909,3.717,7.044,3.6,7.2l-2.999,3.999C0.213,11.715,0,12.354,0,13v1c0,1.654,1.346,3,3,3h0v13
	c0,1.104,0.896,2,2,2h22c1.104,0,2-0.896,2-2V17l0,0c1.654,0,3-1.346,3-3v-1C32,12.354,31.787,11.715,31.4,11.2z M26,2v4H6h0V2H26z
	 M10.193,15H6.004l4-7h2.189L10.193,15z M13.234,8H15.5v7h-4.266L13.234,8z M16.5,8h2.266l2,7H16.5V8z M19.805,8h2.189l4,7h-4.189
	L19.805,8z M2,14v-1c0-0.217,0.07-0.427,0.2-0.6l3-4C5.389,8.148,5.685,8,6,8h2.852l-4,7H3C2.448,15,2,14.553,2,14z M20,30h-7.5V20
	H20V30z M27,30h-6V20c0-0.553-0.449-1-1-1h-7.5c-0.552,0-1,0.447-1,1v10H5V17h22V30z M30,14c0,0.553-0.447,1-1,1h-1.854l-4-7H26l0,0
	c0.314,0,0.611,0.148,0.799,0.4l3,4C29.93,12.573,30,12.783,30,13V14z"/>

</symbol>
<symbol id="sound" viewBox="0 0 32 32">
<g id="sound">
	<path fill="#333333" d="M26.998,14.003H27c0.002,0.274,0.225,0.496,0.5,0.496S28,14.276,28,14c0-0.003-0.002-0.005-0.002-0.008
		c-0.006-5.509-4.465-9.973-9.973-9.986C18.018,4.004,18.01,4,18,4c-0.277,0-0.5,0.224-0.5,0.5c0,0.275,0.223,0.499,0.498,0.5v0.004
		C22.961,5.003,26.998,9.041,26.998,14.003z"/>
	<path fill="#333333" d="M9.121,0.878C8.548,0.304,7.78,0,6.999,0C6.613,0,6.224,0.074,5.853,0.228C4.731,0.692,4,1.786,4,3
		L3.999,16.757l-3.12,3.122c-1.172,1.17-1.172,3.07,0,4.242l7,7C8.465,31.707,9.232,32,10,32s1.535-0.293,2.121-0.879L15.242,28
		h13.756c1.215,0,2.309-0.73,2.771-1.852c0.465-1.121,0.209-2.412-0.65-3.27L9.121,0.878z M13.828,26.586l-3.121,3.121
		C10.452,29.961,10.154,30,10,30s-0.452-0.039-0.707-0.293l-7-7C2.038,22.451,2,22.154,2,22s0.038-0.453,0.293-0.707l3.12-3.121
		c0.009-0.01,0.012-0.021,0.021-0.031l8.425,8.426C13.85,26.574,13.837,26.576,13.828,26.586z M15.242,26
		c-0.155,0-0.299,0.055-0.447,0.088L5.91,17.203c0.034-0.148,0.089-0.292,0.089-0.446L6,4.711L27.287,26H15.242z M29.922,25.383
		C29.768,25.758,29.404,26,28.998,26h-0.297L6,3.297V3c0-0.406,0.242-0.769,0.617-0.924C6.74,2.025,6.868,2,6.999,2
		c0.268,0,0.519,0.104,0.707,0.292l21.999,22.001C29.992,24.58,30.078,25.008,29.922,25.383z"/>
	<path fill="#333333" d="M17.998,2v0.004c6.617,0,12,5.383,12,12H30C30.002,14.554,30.449,15,31,15c0.553,0,1-0.447,1-1
		c0-0.003-0.002-0.005-0.002-0.008C31.992,6.274,25.742,0.019,18.025,0.005C18.018,0.004,18.01,0,18,0c-0.553,0-1,0.447-1,1
		C17,1.551,17.447,1.999,17.998,2z"/>
</g>

</symbol>
<symbol id="stack" viewBox="0 0 32 32">
<g id="stack">
	<path fill="#333333" d="M31.924,18.455L27.922,3.449C27.68,2.596,26.889,2,26,2H16H6C5.11,2,4.32,2.596,4.078,3.449L0.076,18.455
		C0.025,18.637,0,18.82,0,19v7c0,2.209,1.791,4,4,4h24c2.209,0,4-1.791,4-4v-7C32,18.82,31.975,18.637,31.924,18.455z M30,26
		c0,1.102-0.898,2-2,2H4c-1.103,0-2-0.898-2-2v-7L6.001,3.999h19.997L30,19V26z"/>
	<path fill="#333333" d="M23.742,6H8.258c-0.453,0-0.85,0.305-0.967,0.743l-3.445,12c-0.079,0.301-0.016,0.621,0.174,0.867
		S4.502,20,4.812,20h2.906h1.141h0.521l1.447,2.895C11.167,23.572,11.859,24,12.617,24h6.766c0.758,0,1.449-0.428,1.789-1.105
		L22.619,20h0.521h1.141h2.906c0.311,0,0.604-0.145,0.793-0.391s0.252-0.566,0.174-0.867l-3.445-12C24.592,6.304,24.195,6,23.742,6z
		 M24.281,18h-1.662c-0.762,0-1.447,0.422-1.789,1.105L19.383,22h-6.766l-1.447-2.895C10.828,18.422,10.143,18,9.381,18H7.719H5.334
		L8.258,7h15.484l2.924,11H24.281z"/>
</g>

</symbol>
<symbol id="star" viewBox="0 0 32 32">
<path id="star" fill="#333333" d="M31.881,12.557c-0.277-0.799-0.988-1.384-1.844-1.511l-8.326-1.238l-3.619-7.514
	C17.711,1.505,16.896,1,16,1c-0.896,0-1.711,0.505-2.092,1.294l-3.619,7.514l-8.327,1.238c-0.855,0.127-1.566,0.712-1.842,1.511
	c-0.275,0.801-0.067,1.683,0.537,2.285l6.102,6.092l-1.415,8.451C5.2,30.236,5.569,31.09,6.292,31.588
	C6.689,31.861,7.156,32,7.623,32c0.384,0,0.769-0.094,1.118-0.281L16,27.811l7.26,3.908C23.609,31.906,23.994,32,24.377,32
	c0.467,0,0.934-0.139,1.332-0.412c0.723-0.498,1.09-1.352,0.947-2.203l-1.416-8.451l6.104-6.092
	C31.947,14.239,32.154,13.357,31.881,12.557z M23.588,19.363c-0.512,0.51-0.744,1.229-0.627,1.934l1.416,8.451l-7.26-3.906
	c-0.348-0.188-0.732-0.281-1.118-0.281c-0.384,0-0.769,0.094-1.117,0.281l-7.26,3.906l1.416-8.451
	c0.118-0.705-0.114-1.424-0.626-1.934l-6.102-6.092l8.326-1.24c0.761-0.113,1.416-0.589,1.743-1.268L16,3.251l3.62,7.513
	c0.328,0.679,0.982,1.154,1.742,1.268l8.328,1.24L23.588,19.363z"/>

</symbol>
<symbol id="study" viewBox="0 0 32 32">
<g id="study_1_">
	<path fill="#333333" d="M32,8c0-1.406-0.957-2.608-2.326-2.924L16.661,2.073C16.443,2.024,16.221,2,16,2
		c-0.221,0-0.443,0.024-0.675,0.076l-12.999,3C0.956,5.392,0,6.594,0,8s0.957,2.608,2.325,2.924L5,11.541V20c0,2.654,3.038,5,11,5
		s11-2.346,11-5v-8.459l2.674-0.617C31.043,10.608,32,9.406,32,8z M25,20c0,1.105-3,3-9,3c-6,0-9-1.895-9-3v-7.997l8.338,1.924
		C15.556,13.976,15.779,14,16,14c0.221,0,0.444-0.024,0.674-0.076L25,12.003V20z M16.225,11.975C16.15,11.991,16.075,12,16,12
		s-0.151-0.009-0.225-0.025l-13-3C2.321,8.87,2,8.466,2,8s0.321-0.87,0.775-0.975l13-3C15.849,4.009,15.924,4,16,4
		s0.151,0.009,0.225,0.025l13,3C29.678,7.13,30,7.534,30,8s-0.322,0.87-0.775,0.975L16.225,11.975z"/>
	<path fill="#333333" d="M29,13v9c0,0.553,0.447,1,1,1c0.552,0,1-0.447,1-1v-9c0-0.553-0.448-1-1-1C29.447,12,29,12.447,29,13z"/>
	<path fill="#333333" d="M30,24c-1.105,0-2,2.896-2,4s0.895,2,2,2c1.104,0,2-0.896,2-2S31.104,24,30,24z"/>
</g>

</symbol>
<symbol id="t-shirt" viewBox="0 0 32 32">
<g id="Layer_1">
	<path id="t-shirt_1_" fill-rule="evenodd" clip-rule="evenodd" fill="#333333" d="M31.25,6.438l-5-4C25.895,2.154,25.453,2,25,2H7
		C6.546,2,6.105,2.154,5.75,2.438l-5,4C0.096,6.962-0.162,7.838,0.103,8.633l2,6c0.197,0.591,0.659,1.057,1.249,1.259
		C3.562,15.964,3.782,16,4,16c0.348,0,0.693-0.091,1-0.268V28c0,1.104,0.896,2,2,2h18c1.104,0,2-0.896,2-2V15.732
		C27.307,15.909,27.652,16,28,16c0.219,0,0.438-0.036,0.648-0.108c0.59-0.202,1.051-0.668,1.248-1.259l2-6
		C32.162,7.838,31.904,6.962,31.25,6.438z M19.754,4C19.201,5.161,17.736,6,16,6c-1.736,0-3.202-0.839-3.754-2H19.754z M28,14l-3-2
		v16H7V12l-3,2L2,8l5-4h4.177C11.734,5.722,13.673,7,16,7c2.326,0,4.266-1.278,4.822-3H25l5,4L28,14z"/>
</g>
<g id="Layer_2">
</g>

</symbol>
<symbol id="tag" viewBox="0 0 32 32">
<g id="tag">
	<path fill-rule="evenodd" clip-rule="evenodd" fill="#333333" d="M31.391,13.883l-5-8c-0.73-1.169-2.012-1.88-3.391-1.88H4
		c-2.209,0-4,1.791-4,4v16c0,2.209,1.791,4,4,4h19c1.379,0,2.66-0.711,3.391-1.881l5-8C32.203,16.827,32.203,15.18,31.391,13.883z
		 M29.695,17.062l-5,8.002c-0.367,0.588-1.002,0.939-1.695,0.939H4c-1.103,0-2-0.898-2-2v-16c0-1.103,0.897-2,2-2h19
		c0.693,0,1.328,0.352,1.695,0.939l5,8C30.098,15.587,30.098,16.419,29.695,17.062z"/>
	<path fill-rule="evenodd" clip-rule="evenodd" fill="#333333" d="M23,13.003c-1.658,0-3,1.343-3,3c0,1.657,1.342,3,3,3
		c1.656,0,3-1.344,3-3C26,14.346,24.656,13.003,23,13.003z M23,18.004c-1.105,0-2-0.896-2-2c0-1.104,0.895-2,2-2
		c1.104,0,2,0.896,2,2C25,17.107,24.104,18.004,23,18.004z"/>
</g>

</symbol>
<symbol id="trash" viewBox="0 0 32 32">
<g id="trash">
	<path fill-rule="evenodd" clip-rule="evenodd" fill="#333333" d="M29.98,6.819c-0.096-1.57-1.387-2.816-2.98-2.816h-3v-1V3.001
		c0-1.657-1.344-3-3-3H11c-1.657,0-3,1.343-3,3v0.001v1H5c-1.595,0-2.885,1.246-2.981,2.816H2v1.183v1c0,1.104,0.896,2,2,2l0,0v17
		c0,2.209,1.791,4,4,4h16c2.209,0,4-1.791,4-4v-17l0,0c1.104,0,2-0.896,2-2v-1V6.819H29.98z M10,3.002c0-0.553,0.447-1,1-1h10
		c0.553,0,1,0.447,1,1v1H10V3.002z M26,28.002c0,1.102-0.898,2-2,2H8c-1.103,0-2-0.898-2-2v-17h20V28.002z M28,8.001v1H4v-1V7.002
		c0-0.553,0.447-1,1-1h22c0.553,0,1,0.447,1,1V8.001z"/>
	<path fill-rule="evenodd" clip-rule="evenodd" fill="#333333" d="M9,28.006h2c0.553,0,1-0.447,1-1v-13c0-0.553-0.447-1-1-1H9
		c-0.553,0-1,0.447-1,1v13C8,27.559,8.447,28.006,9,28.006z M9,14.005h2v13H9V14.005z"/>
	<path fill-rule="evenodd" clip-rule="evenodd" fill="#333333" d="M15,28.006h2c0.553,0,1-0.447,1-1v-13c0-0.553-0.447-1-1-1h-2
		c-0.553,0-1,0.447-1,1v13C14,27.559,14.447,28.006,15,28.006z M15,14.005h2v13h-2V14.005z"/>
	<path fill-rule="evenodd" clip-rule="evenodd" fill="#333333" d="M21,28.006h2c0.553,0,1-0.447,1-1v-13c0-0.553-0.447-1-1-1h-2
		c-0.553,0-1,0.447-1,1v13C20,27.559,20.447,28.006,21,28.006z M21,14.005h2v13h-2V14.005z"/>
</g>

</symbol>
<symbol id="truck" viewBox="0 0 32 32">
<g id="truck_1_">
	<path fill="#333332" d="M24.832,11.445C24.646,11.167,24.334,11,24,11h-1c-0.553,0-1,0.447-1,1v6c0,0.553,0.447,1,1,1h4
		c0.553,0,1-0.447,1-1v-1.5c0-0.197-0.059-0.391-0.168-0.555L24.832,11.445z M27,18h-4v-6h1l3,4.5V18z"/>
	<path fill="#333332" d="M31.496,15.336l-4-6C26.938,8.499,26.004,8,25,8h-4V6c0-1.654-1.346-3-3-3H3C1.346,3,0,4.346,0,6v11
		c0,1.654,1.346,3,3,3h0v3c0,1.654,1.346,3,3,3h1.142c0.447,1.721,2,3,3.859,3c1.857,0,3.41-1.279,3.857-3h5.282
		c0.447,1.721,2,3,3.859,3c1.857,0,3.41-1.279,3.857-3H29c1.654,0,3-1.346,3-3v-6C32,16.406,31.826,15.83,31.496,15.336z M3,18
		c-0.552,0-1-0.447-1-1V6c0-0.553,0.448-1,1-1h15c0.553,0,1,0.447,1,1v2v2v7c0,0.553-0.447,1-1,1H3z M11.001,27
		c-1.105,0-2-0.896-2-2s0.895-2,2-2c1.104,0,2,0.896,2,2S12.104,27,11.001,27z M24,27c-1.105,0-2-0.896-2-2s0.895-2,2-2
		c1.104,0,2,0.896,2,2S25.104,27,24,27z M30,23c0,0.553-0.447,1-1,1h-1.143c-0.447-1.721-2-3-3.857-3c-1.859,0-3.412,1.279-3.859,3
		h-5.282c-0.447-1.721-2-3-3.857-3c-1.859,0-3.412,1.279-3.859,3H6c-0.552,0-1-0.447-1-1v-3h13c1.654,0,3-1.346,3-3v-7h4
		c0.334,0,0.646,0.167,0.832,0.445l4,6C29.941,16.609,30,16.803,30,17V23z"/>
</g>

</symbol>
<symbol id="tv" viewBox="0 0 32 32">
<g id="tv">
	<path fill="#333333" d="M22.17,8.624c-2.707-0.557-5.455-0.839-8.165-0.839c-2.71,0-5.457,0.282-8.165,0.839
		C5.49,8.696,5.204,8.95,5.091,9.291c-1.442,4.381-1.442,8.823,0,13.204c0.112,0.34,0.398,0.594,0.749,0.666
		C8.548,23.717,11.295,24,14.005,24c2.709,0,5.458-0.283,8.165-0.84c0.352-0.072,0.637-0.326,0.75-0.666
		c1.441-4.381,1.441-8.823,0-13.204C22.807,8.95,22.521,8.696,22.17,8.624z M21.969,22.182c-5.309,1.09-10.619,1.09-15.927,0
		c-1.381-4.193-1.381-8.385,0-12.579c5.309-1.091,10.619-1.091,15.927,0C23.35,13.796,23.35,17.988,21.969,22.182z"/>
	<path fill="#333333" d="M30.854,6.32c-0.193-0.814-0.875-1.422-1.705-1.522C24.789,4.268,20.367,4,16.005,4
		C11.644,4,7.222,4.268,2.862,4.797C2.032,4.898,1.351,5.505,1.158,6.32c-1.529,6.423-1.529,12.936,0,19.36
		c0.193,0.814,0.874,1.422,1.704,1.521c2.101,0.256,4.216,0.443,6.331,0.576C9.079,27.85,9.005,27.924,9.005,28c0,0.553,3.134,1,7,1
		c3.866,0,7-0.447,7-1c0-0.076-0.074-0.15-0.188-0.223c2.115-0.133,4.23-0.32,6.33-0.576c0.83-0.1,1.512-0.707,1.705-1.521
		C32.383,19.256,32.383,12.743,30.854,6.32z M28.908,25.217c-8.602,1.043-17.204,1.043-25.805,0c-1.463-6.145-1.463-12.29,0-18.434
		c8.602-1.044,17.204-1.044,25.805,0C30.371,12.927,30.371,19.072,28.908,25.217z"/>
	<path fill="#333333" d="M26.506,12c0.828,0,1.5-0.672,1.5-1.5S27.334,9,26.506,9s-1.5,0.672-1.5,1.5S25.678,12,26.506,12z
		 M26.506,10c0.275,0,0.5,0.225,0.5,0.5s-0.225,0.5-0.5,0.5s-0.5-0.225-0.5-0.5S26.23,10,26.506,10z"/>
	<path fill="#333333" d="M27.506,22h-3c-0.277,0-0.5,0.223-0.5,0.5c0,0.275,0.223,0.5,0.5,0.5h3c0.275,0,0.5-0.225,0.5-0.5
		C28.006,22.223,27.781,22,27.506,22z"/>
	<path fill="#333333" d="M28.506,19h-3c-0.277,0-0.5,0.223-0.5,0.5c0,0.275,0.223,0.5,0.5,0.5h3c0.275,0,0.5-0.225,0.5-0.5
		C29.006,19.223,28.781,19,28.506,19z"/>
	<path fill="#333333" d="M28.506,16h-3c-0.277,0-0.5,0.224-0.5,0.5s0.223,0.5,0.5,0.5h3c0.275,0,0.5-0.224,0.5-0.5
		S28.781,16,28.506,16z"/>
	<path fill="#333333" d="M13.505,11.804l-4.586,0.359c-0.273,0.031-0.534,0.279-0.58,0.551L8.034,15.5
		C8.02,15.775,8.233,16,8.507,16c0.273,0,0.507-0.225,0.518-0.5l0.167-1.895c0.037-0.272,0.291-0.518,0.564-0.546l3.749-0.257
		c0.275-0.01,0.5-0.242,0.5-0.518S13.781,11.793,13.505,11.804z"/>
</g>

</symbol>
<symbol id="user" viewBox="0 0 32 32">
<path id="usericon" fill="#333333" d="M31.11,28.336c-0.201-0.133-3.848-2.525-9.273-3.699c1.99-2.521,3.268-5.912,3.811-8.169
	c0.754-3.128,0.461-9.248-2.543-13.062C21.349,1.177,18.892,0,16,0c-2.892,0-5.349,1.178-7.104,3.406
	C5.892,7.219,5.6,13.339,6.353,16.467c0.543,2.257,1.82,5.648,3.811,8.169c-5.425,1.174-9.072,3.566-9.272,3.699
	c-0.733,0.488-1.061,1.4-0.805,2.242C0.341,31.422,1.12,32,2,32h28c0.881,0,1.658-0.578,1.914-1.422
	C32.171,29.736,31.843,28.824,31.11,28.336z M20.267,23.398l-0.326,0.414c-2.385,2.74-5.495,2.74-7.879,0l-0.327-0.414
	c-2.785-3.529-4.167-8.197-3.572-12.65C8.708,6.469,11.16,2,16,2c4.84,0,7.293,4.47,7.838,8.749
	C24.431,15.204,23.054,19.867,20.267,23.398z M2,30c0.138-0.092,3.526-2.314,8.586-3.408l2.484-0.537C13.957,26.637,14.93,27,16,27
	c1.071,0,2.043-0.363,2.93-0.945l2.484,0.537c5.02,1.086,8.396,3.283,8.586,3.408H2z"/>

</symbol>
<symbol id="vallet" viewBox="0 0 32 32">
<g id="vallet_1_">
	<circle fill="#333332" cx="18" cy="20" r="2"/>
	<path fill="#333332" d="M29.001,13C29,13,29,13,29.001,13L29,7V6.5V4c0-1.657-1.344-3-3-3h-4H5.5C2.467,1,0,3.468,0,6.5v20
		C0,29.532,2.467,32,5.5,32h18c3.032,0,5.5-2.468,5.5-5.5V25c0,0,0,0,0.001,0C32.999,21.999,32.999,16.001,29.001,13z M5.5,3H22h4
		c0.551,0,1,0.448,1,1v2.5V7v3.184C26.686,10.072,26.352,10,26,10h-0.001V9V7V5c0-0.553-0.448-1-1-1h-21c-0.552,0-1,0.447-1,1v2
		v1.943C2.382,8.312,2,7.452,2,6.5C2,4.567,3.566,3,5.5,3z M24.999,6h-21V5h21V6z M24.999,7v1h-21V7H24.999z M24.999,9v1H22H5.5
		c-0.54,0-1.044-0.132-1.5-0.35V9H24.999z M27,26.5c0,1.933-1.567,3.5-3.5,3.5h-18C3.566,30,2,28.433,2,26.5V10.739
		C2.951,11.526,4.171,12,5.5,12H22h4c0.551,0,1,0.448,1,1v2h-9c-2.762,0-5,2.238-5,5s2.239,5,5,5h9V26.5z M28.277,23H18
		c-1.654,0-3-1.346-3-3s1.346-3,3-3h9c0.617-0.008,1.229-0.307,1.602-0.804c0.104-0.14,0.185-0.297,0.25-0.461
		c0.009-0.022,0.025-0.039,0.033-0.062C29.604,16.616,30,17.772,30,19C30,20.538,29.379,21.965,28.277,23z"/>
</g>

</symbol>
<symbol id="video" viewBox="0 0 32 32">
<path id="video" fill="#333333" d="M30,6h-0.887c-0.525,0-1.029,0.207-1.404,0.576L25,9.248V8c0-1.657-1.344-3-3-3H3
	C1.346,5,0,6.345,0,8v6.972V24c0,1.656,1.343,3,3,3h19c1.656,0,3-1.344,3-3v-1.221l2.709,2.672c0.375,0.369,0.879,0.576,1.404,0.576
	H30c1.104,0,2-0.895,2-2V8C32,6.895,31.104,6,30,6z M3,25c-0.552,0-1-0.449-1-1V8c0-0.553,0.447-1,1-1h19c0.551,0,1,0.448,1,1v16
	c0,0.551-0.449,1-1,1H3z M30,24.027h-0.887H29l-4-4V20l-1-1v-6l5-5h0.113H30V24.027z"/>

</symbol>
<symbol id="vynil" viewBox="0 0 32 32">
<g id="vynil_1_">
	<path fill-rule="evenodd" clip-rule="evenodd" fill="#333333" d="M21.951,1.15c-8.202-3.284-17.515,0.702-20.8,8.905
		c-3.286,8.204,0.702,17.518,8.905,20.802c8.203,3.285,17.516-0.702,20.801-8.905C34.143,13.748,30.154,4.436,21.951,1.15z
		 M10.8,29.001C3.634,26.131,0.138,17.967,3.007,10.8c2.87-7.166,11.035-10.663,18.202-7.792c7.166,2.869,10.662,11.034,7.793,18.2
		C26.131,28.375,17.967,31.87,10.8,29.001z"/>
	<path fill-rule="evenodd" clip-rule="evenodd" fill="#333333" d="M16.749,14.147c-1.025-0.411-2.19,0.088-2.601,1.113
		s0.088,2.189,1.112,2.6c1.025,0.411,2.191-0.088,2.601-1.112C18.271,15.723,17.773,14.559,16.749,14.147z M15.632,16.933
		c-0.512-0.206-0.761-0.788-0.557-1.301c0.206-0.512,0.789-0.761,1.301-0.557c0.511,0.205,0.76,0.788,0.556,1.301
		C16.727,16.888,16.144,17.137,15.632,16.933z"/>
	<path fill-rule="evenodd" clip-rule="evenodd" fill="#333333" d="M18.234,10.435c-3.076-1.232-6.568,0.264-7.8,3.339
		c-1.232,3.076,0.264,6.568,3.339,7.8c3.076,1.232,6.568-0.263,7.8-3.339S21.311,11.666,18.234,10.435z M14.518,19.717
		c-2.048-0.819-3.046-3.153-2.227-5.2c0.82-2.047,3.152-3.046,5.199-2.227c2.049,0.82,3.047,3.154,2.229,5.201
		C18.898,19.538,16.565,20.538,14.518,19.717z"/>
	<path fill-rule="evenodd" clip-rule="evenodd" fill="#333333" d="M23.432,18.978c0.102-0.256-0.023-0.547-0.279-0.649
		c-0.256-0.104-0.547,0.021-0.65,0.278v-0.001c-0.719,1.796-2.098,3.129-3.744,3.834c-0.252,0.108-0.371,0.402-0.262,0.655
		c0.109,0.255,0.402,0.372,0.656,0.264c0.01-0.004,0.014-0.012,0.021-0.015c1.873-0.81,3.439-2.327,4.256-4.366H23.432z"/>
	<path fill-rule="evenodd" clip-rule="evenodd" fill="#333333" d="M26.865,19.814c-0.256-0.103-0.547,0.022-0.65,0.278
		c-1.129,2.82-3.295,4.915-5.883,6.023c-0.252,0.108-0.371,0.402-0.262,0.656c0.109,0.255,0.402,0.371,0.656,0.263
		c0.012-0.006,0.021-0.017,0.033-0.022c2.809-1.213,5.16-3.49,6.385-6.548C27.246,20.208,27.121,19.917,26.865,19.814z"/>
	<path fill-rule="evenodd" clip-rule="evenodd" fill="#333333" d="M25.008,19.071c-0.256-0.103-0.547,0.021-0.65,0.278
		c-0.922,2.308-2.693,4.021-4.812,4.928h0.002c-0.254,0.109-0.373,0.403-0.264,0.657s0.402,0.371,0.656,0.263
		c0.01-0.005,0.016-0.014,0.027-0.02c2.34-1.011,4.299-2.907,5.32-5.456C25.389,19.465,25.264,19.174,25.008,19.071z"/>
	<path fill-rule="evenodd" clip-rule="evenodd" fill="#333333" d="M13.513,8.912c-0.109-0.255-0.403-0.371-0.657-0.262
		c-0.009,0.003-0.014,0.011-0.021,0.014c-1.873,0.81-3.44,2.328-4.256,4.366H8.578C8.475,13.287,8.6,13.577,8.856,13.68
		c0.257,0.103,0.548-0.022,0.65-0.278h0.001c0.718-1.794,2.097-3.128,3.743-3.832C13.504,9.46,13.622,9.167,13.513,8.912z"/>
	<path fill-rule="evenodd" clip-rule="evenodd" fill="#333333" d="M11.938,5.235c-0.109-0.254-0.403-0.371-0.657-0.263
		c-0.012,0.005-0.021,0.016-0.031,0.021c-2.81,1.214-5.16,3.49-6.385,6.548c-0.104,0.258,0.021,0.549,0.278,0.651
		c0.256,0.103,0.547-0.021,0.65-0.278C6.923,9.095,9.088,7,11.676,5.892C11.929,5.782,12.047,5.489,11.938,5.235z"/>
	<path fill-rule="evenodd" clip-rule="evenodd" fill="#333333" d="M12.463,7.729c0.253-0.108,0.372-0.401,0.263-0.656
		c-0.109-0.253-0.403-0.371-0.657-0.262c-0.01,0.004-0.016,0.014-0.026,0.018c-2.341,1.012-4.3,2.91-5.32,5.458
		C6.619,12.544,6.745,12.834,7,12.938c0.256,0.102,0.547-0.021,0.65-0.278c0.923-2.308,2.695-4.022,4.812-4.928V7.729z"/>
</g>

</symbol>
<symbol id="world" viewBox="0 0 32 32">
<path id="world" fill="#333332" d="M15.5,0C6.939,0,0,6.939,0,15.5S6.939,31,15.5,31S31,24.061,31,15.5S24.061,0,15.5,0z M28.975,15
	h-5.996c-0.055-2.215-0.449-4.331-1.148-6.268c1.35-0.563,2.598-1.312,3.736-2.197C27.59,8.806,28.855,11.755,28.975,15z
	 M14.947,28.972c-1.662-1.384-3.056-3.181-4.076-5.268c1.309-0.409,2.696-0.633,4.129-0.679v5.949
	C14.982,28.974,14.965,28.973,14.947,28.972z M16.051,2.028c1.886,1.57,3.425,3.673,4.466,6.126c-1.426,0.487-2.941,0.77-4.518,0.82
	V2.025C16.018,2.026,16.034,2.027,16.051,2.028z M17.717,2.198c2.76,0.459,5.236,1.748,7.164,3.614
	c-1.047,0.803-2.191,1.483-3.428,1.998C20.543,5.653,19.266,3.746,17.717,2.198z M15,2.025v6.949
	c-1.577-0.051-3.093-0.333-4.518-0.82c1.041-2.453,2.58-4.556,4.466-6.126C14.966,2.027,14.982,2.026,15,2.025z M9.546,7.811
	c-1.235-0.515-2.38-1.195-3.427-1.998c1.927-1.866,4.404-3.155,7.164-3.614C11.733,3.746,10.457,5.653,9.546,7.811z M10.105,9.076
	C11.647,9.611,13.29,9.923,15,9.975V15H9.021C9.075,12.906,9.446,10.905,10.105,9.076z M15,16v6.025
	c-1.577,0.048-3.102,0.306-4.539,0.769C9.595,20.732,9.084,18.435,9.021,16H15z M13.283,28.802
	c-2.473-0.411-4.719-1.488-6.545-3.052c0.985-0.683,2.05-1.261,3.188-1.7C10.798,25.858,11.939,27.463,13.283,28.802z M16,28.975
	v-5.949c1.432,0.046,2.82,0.27,4.129,0.679c-1.021,2.087-2.414,3.884-4.076,5.268C16.036,28.973,16.018,28.974,16,28.975z
	 M21.074,24.05c1.137,0.439,2.201,1.018,3.188,1.7c-1.826,1.563-4.072,2.641-6.545,3.052C19.061,27.463,20.201,25.858,21.074,24.05z
	 M20.539,22.794c-1.438-0.463-2.963-0.721-4.539-0.769V16h5.979C21.916,18.435,21.404,20.732,20.539,22.794z M16,15V9.975
	c1.709-0.052,3.352-0.363,4.895-0.898c0.658,1.829,1.029,3.83,1.084,5.924H16z M5.434,6.535C6.572,7.42,7.82,8.169,9.169,8.732
	C8.47,10.669,8.076,12.785,8.021,15H2.025C2.145,11.755,3.41,8.806,5.434,6.535z M2.025,16h5.996
	c0.062,2.555,0.596,4.968,1.503,7.137c-1.267,0.494-2.448,1.152-3.538,1.931C3.638,22.731,2.156,19.536,2.025,16z M25.014,25.067
	c-1.09-0.778-2.271-1.437-3.539-1.931c0.908-2.169,1.441-4.582,1.504-7.137h5.996C28.844,19.536,27.361,22.731,25.014,25.067z"/>

</symbol></svg>